<svg xmlns="http://www.w3.org/2000/svg" viewBox="0 0 421.24 412.85"><g id="freepik--background-complete--inject-10"><path d="M213.47,196.59c5.18,0,134.47-.9,171-.9,2.55,0-.67-4.42-2.08-4.73-4.49-1-9.17-1-13.73-1.51a44.85,44.85,0,0,1-13.09-3.27c-3.59-1.52-7.18-3.28-11.07-3.88-7.52-1.18-14.12,2.9-21.18,4.7a16,16,0,0,1-12.83-1.76c-3.26-2-6.23-4.3-9.64-6a52.83,52.83,0,0,0-42.24-1.93,48.6,48.6,0,0,0-9.25,4.73c-3.44,2.26-6.41,5.15-9.87,7.38-7.66,5-17.13,3.35-25.48,6.19C213.54,195.73,213,196.59,213.47,196.59Z" transform="translate(-40.18 -28.02)" style="fill:#ebebeb"></path><path d="M55.56,286.44c6.85,0,122.11.76,129.36.52.52,0,.8-.78.28-1-4.57-2.26-9.75-1.81-14.49-3.41-2.79-.94-4.51-2.77-6.45-4.86a13.38,13.38,0,0,0-6-3.92,12.69,12.69,0,0,0-6.53-.2c-2.34.56-4.37,1.9-6.61,2.74-5.53,2.09-10.91.1-14.87-4-3.26-3.38-6.46-6.57-10.9-8.39a14.48,14.48,0,0,0-11.54-.16c-4.23,1.92-7.13,5.77-11.1,8.09-4.71,2.75-10.34,2.1-15.54,2.93S72,280,67.43,282.49a9.75,9.75,0,0,1-5,1.54c-1,0-2-.3-3-.43-1.57-.19-3.06-.15-4.12,1.16C55.05,285.08,55.11,286.44,55.56,286.44Z" transform="translate(-40.18 -28.02)" style="fill:#ebebeb"></path><path d="M186.57,64.13c5,0,89.15.55,94.44.39.38,0,.59-.57.21-.76-3.33-1.65-7.12-1.32-10.58-2.49a11.3,11.3,0,0,1-4.71-3.55,9.77,9.77,0,0,0-4.38-2.86,9.26,9.26,0,0,0-4.76-.15,40.52,40.52,0,0,0-4.82,2c-4,1.52-8,.07-10.86-2.92-2.38-2.47-4.72-4.79-8-6.12a10.61,10.61,0,0,0-8.43-.12c-3.08,1.4-5.2,4.21-8.1,5.91-3.44,2-7.55,1.53-11.35,2.14s-6.71,3.8-10,5.64a7,7,0,0,1-3.63,1.12c-.74,0-1.47-.22-2.21-.31a3,3,0,0,0-3,.85C186.2,63.14,186.24,64.13,186.57,64.13Z" transform="translate(-40.18 -28.02)" style="fill:#ebebeb"></path><path d="M169.54,258.49c5,0,89.15.55,94.44.38.38,0,.59-.57.21-.75-3.34-1.66-7.12-1.32-10.58-2.49a11.3,11.3,0,0,1-4.71-3.55,9.74,9.74,0,0,0-4.38-2.86,9.26,9.26,0,0,0-4.76-.15,42.18,42.18,0,0,0-4.82,2c-4.05,1.53-8,.08-10.86-2.91-2.38-2.47-4.72-4.8-8-6.12a10.52,10.52,0,0,0-8.43-.12c-3.09,1.4-5.2,4.21-8.1,5.9-3.44,2-7.55,1.54-11.35,2.14s-6.71,3.81-10,5.65a7.1,7.1,0,0,1-3.63,1.12c-.74,0-1.47-.22-2.21-.31a3,3,0,0,0-3,.85C169.17,257.5,169.21,258.49,169.54,258.49Z" transform="translate(-40.18 -28.02)" style="fill:#ebebeb"></path><path d="M339.7,174.47c5,0,89.16.55,94.45.38.38,0,.58-.57.21-.76-3.34-1.65-7.12-1.32-10.58-2.48a11.3,11.3,0,0,1-4.71-3.55,9.74,9.74,0,0,0-4.38-2.86,9.3,9.3,0,0,0-4.77-.15,41.15,41.15,0,0,0-4.82,2c-4,1.53-8,.08-10.85-2.92-2.38-2.46-4.72-4.79-8-6.11a10.52,10.52,0,0,0-8.43-.12c-3.09,1.4-5.21,4.21-8.11,5.9-3.43,2-7.54,1.53-11.34,2.14s-6.71,3.8-10,5.64a7.15,7.15,0,0,1-3.63,1.13c-.74,0-1.47-.22-2.21-.31a3,3,0,0,0-3,.84C339.34,173.48,339.38,174.47,339.7,174.47Z" transform="translate(-40.18 -28.02)" style="fill:#ebebeb"></path><path d="M301.4,326H444.29c.58,0,.79-.61.21-.88-5.12-2.41-10.85-1.78-16.15-3.45-3.12-1-5.06-3-7.26-5.24a14.81,14.81,0,0,0-6.74-4.2,14,14,0,0,0-7.25-.08c-2.58.67-4.8,2.2-7.25,3.19-6.1,2.45-12.11.37-16.59-4.09-3.69-3.67-7.32-7.13-12.28-9a16,16,0,0,0-12.81.09c-4.64,2.22-7.77,6.56-12.12,9.22-5.16,3.16-11.42,2.57-17.16,3.61s-10.54,3.52-15.54,6.42a10.81,10.81,0,0,1-5.48,1.82c-1.13,0-2.24-.29-3.36-.4-1.75-.18-3.4-.1-4.54,1.38C299.69,324.74,298,326,301.4,326Z" transform="translate(-40.18 -28.02)" style="fill:#ebebeb"></path></g><g id="freepik--Airplane--inject-10"><path d="M363.25,216l32.42-19.06A46.32,46.32,0,0,1,404,193l7.14-2.58c.23-.09-24.22,17-24.22,17Z" transform="translate(-40.18 -28.02)" style="fill:#dbdbdb"></path><path d="M378.4,210.49a262.88,262.88,0,0,1,27.32-18.07,262.34,262.34,0,0,1-27.32,18.07Z" transform="translate(-40.18 -28.02)" style="fill:#c7c7c7"></path><polygon points="381.93 175.42 382.16 176.19 383.68 176.58 384.75 176.26 385.81 175.1 385.58 174.32 381.93 175.42" style="fill:#37474f"></polygon><path d="M423.05,206.56a1.9,1.9,0,1,0,1.27-2.37A1.9,1.9,0,0,0,423.05,206.56Z" transform="translate(-40.18 -28.02)" style="fill:#263238"></path><path d="M423.89,206.31a1,1,0,0,0,1.27.68,1,1,0,1,0-1.27-.68Z" transform="translate(-40.18 -28.02)" style="fill:#dbdbdb"></path><polygon points="316.49 195.07 316.72 195.85 318.24 196.24 319.31 195.92 320.37 194.75 320.13 193.98 316.49 195.07" style="fill:#37474f"></polygon><path d="M357.6,226.22a1.91,1.91,0,1,0,1.28-2.37A1.9,1.9,0,0,0,357.6,226.22Z" transform="translate(-40.18 -28.02)" style="fill:#263238"></path><path d="M358.45,226a1,1,0,0,0,2-.59,1,1,0,0,0-1.28-.69A1,1,0,0,0,358.45,226Z" transform="translate(-40.18 -28.02)" style="fill:#dbdbdb"></path><polygon points="311.06 196.7 311.29 197.48 312.82 197.87 313.89 197.55 314.94 196.38 314.71 195.61 311.06 196.7" style="fill:#37474f"></polygon><path d="M352.18,227.85a1.91,1.91,0,1,0,1.27-2.37A1.9,1.9,0,0,0,352.18,227.85Z" transform="translate(-40.18 -28.02)" style="fill:#263238"></path><path d="M353,227.59a1,1,0,0,0,1.28.69,1,1,0,0,0-.59-2A1,1,0,0,0,353,227.59Z" transform="translate(-40.18 -28.02)" style="fill:#dbdbdb"></path><path d="M303.92,225.05,290,206l4-1a10.33,10.33,0,0,1,6.86.63l13.12,6.06A27.15,27.15,0,0,0,323.4,214l12.12.87Z" transform="translate(-40.18 -28.02)" style="fill:#EF6603"></path><path d="M301,226.12c5.62-2.14,30.19-10.41,63.48-20.41s49.17-14.38,53.6-15.43,9.62.87,9.62.87l3.29,1.47s4.47.64,5,2.53-4.47,6.24-17.68,10.54c-21.94,7.14-53.38,16.43-73.49,21-7.94,1.79-38.33,1.94-41.81,1.94-2.38,0-3.28-.29-3.68-.78S300,226.49,301,226.12Z" transform="translate(-40.18 -28.02)" style="fill:#ebebeb"></path><polygon points="269.56 199.82 262.47 205.69 252.22 208.77 260.09 199.75 269.56 199.82" style="fill:#dbdbdb"></polygon><path d="M327.29,228.13c7.35-.29,14.31-.75,17.54-1.47,20.11-4.54,51.55-13.82,73.49-21,13.21-4.3,18.25-8.65,17.68-10.54-.67.8-8.16,4.23-16.34,6.69C412.66,203.94,346.16,222.79,327.29,228.13Z" transform="translate(-40.18 -28.02)" style="fill:#EF6603"></path><path d="M370.63,216.61h11.08a3.54,3.54,0,0,1,3.54,3.54v.38a3.54,3.54,0,0,1-3.54,3.54H370.63a0,0,0,0,1,0,0v-7.46A0,0,0,0,1,370.63,216.61Z" transform="translate(763.12 294.62) rotate(163.28)" style="fill:#ebebeb"></path><path d="M383,218.82c.6,2,1.94,3.31,3,3s1.46-2.18.86-4.15-1.93-3.31-3-3S382.42,216.85,383,218.82Z" transform="translate(-40.18 -28.02)" style="fill:#c7c7c7"></path><path d="M383.5,218.68c.5,1.66,1.59,2.81,2.45,2.55s1.14-1.82.63-3.48-1.59-2.81-2.45-2.56S383,217,383.5,218.68Z" transform="translate(-40.18 -28.02)" style="fill:#263238"></path><path d="M386,209.1,352.6,226.32a47,47,0,0,1-8.56,3.41l-7.27,2.18c-.24.08,25.13-15.57,25.13-15.57Z" transform="translate(-40.18 -28.02)" style="fill:#dbdbdb"></path><path d="M370.6,213.73a262.94,262.94,0,0,1-28.29,16.52,262,262,0,0,1,28.29-16.52Z" transform="translate(-40.18 -28.02)" style="fill:#c7c7c7"></path><path d="M426.27,191.71l2.86,1.73a10.31,10.31,0,0,0,1.83-.82l-3.29-1.47C427.15,191.37,426.68,191.55,426.27,191.71Z" transform="translate(-40.18 -28.02)" style="fill:#37474f"></path><path d="M423.75,195.23c2.3-.69,3.88-1.23,5-1.63l-2.86-1.73c-1.59.57-2.72.89-2.72.89Z" transform="translate(-40.18 -28.02)" style="fill:#37474f"></path><rect x="411.24" y="196.59" width="1" height="1.66" transform="translate(822.68 240.05) rotate(163.28)" style="fill:#37474f"></rect><rect x="409.44" y="197.13" width="1" height="1.66" transform="translate(819.32 241.62) rotate(163.28)" style="fill:#37474f"></rect><rect x="407.64" y="197.67" width="1" height="1.66" transform="translate(815.96 243.16) rotate(163.28)" style="fill:#37474f"></rect><rect x="405.84" y="198.21" width="1" height="1.66" transform="translate(812.58 244.78) rotate(163.28)" style="fill:#37474f"></rect><rect x="404.05" y="198.75" width="1" height="1.66" transform="translate(809.22 246.34) rotate(163.28)" style="fill:#37474f"></rect><rect x="402.25" y="199.29" width="1" height="1.66" transform="translate(805.86 247.88) rotate(163.28)" style="fill:#37474f"></rect><rect x="400.45" y="199.83" width="1" height="1.66" transform="translate(802.49 249.49) rotate(163.28)" style="fill:#37474f"></rect><rect x="398.65" y="200.37" width="1" height="1.66" transform="translate(799.13 251.02) rotate(163.28)" style="fill:#37474f"></rect><rect x="396.85" y="200.91" width="1" height="1.66" transform="translate(795.75 252.65) rotate(163.28)" style="fill:#37474f"></rect><rect x="395.05" y="201.45" width="1" height="1.66" transform="translate(792.39 254.22) rotate(163.28)" style="fill:#37474f"></rect><rect x="393.25" y="201.99" width="1" height="1.66" transform="translate(789.03 255.75) rotate(163.28)" style="fill:#37474f"></rect><rect x="391.45" y="202.53" width="1" height="1.66" transform="translate(785.65 257.38) rotate(163.28)" style="fill:#37474f"></rect><rect x="389.66" y="203.07" width="1" height="1.66" transform="translate(782.29 258.94) rotate(163.28)" style="fill:#37474f"></rect><rect x="387.86" y="203.61" width="1" height="1.66" transform="translate(778.93 260.49) rotate(163.28)" style="fill:#37474f"></rect><rect x="386.06" y="204.15" width="1" height="1.66" transform="translate(775.56 262.09) rotate(163.28)" style="fill:#37474f"></rect><rect x="384.26" y="204.69" width="1" height="1.66" transform="translate(772.19 263.67) rotate(163.28)" style="fill:#37474f"></rect><rect x="382.46" y="205.23" width="1" height="1.66" transform="translate(768.83 265.21) rotate(163.28)" style="fill:#37474f"></rect><rect x="380.66" y="205.78" width="1" height="1.66" transform="translate(765.46 266.82) rotate(163.28)" style="fill:#37474f"></rect><rect x="378.86" y="206.32" width="1" height="1.66" transform="translate(762.1 268.35) rotate(163.28)" style="fill:#37474f"></rect><rect x="377.06" y="206.86" width="1" height="1.66" transform="translate(758.73 269.94) rotate(163.28)" style="fill:#37474f"></rect><rect x="375.26" y="207.4" width="1" height="1.66" transform="translate(755.36 271.54) rotate(163.28)" style="fill:#37474f"></rect><rect x="373.47" y="207.94" width="1" height="1.66" transform="translate(752 273.09) rotate(163.28)" style="fill:#37474f"></rect><rect x="371.67" y="208.48" width="1" height="1.66" transform="translate(748.62 274.71) rotate(163.28)" style="fill:#37474f"></rect><rect x="369.87" y="209.02" width="1" height="1.66" transform="translate(745.26 276.27) rotate(163.28)" style="fill:#37474f"></rect><rect x="368.07" y="209.56" width="1" height="1.66" transform="translate(741.9 277.82) rotate(163.28)" style="fill:#37474f"></rect><rect x="366.27" y="210.1" width="1" height="1.66" transform="translate(738.53 279.42) rotate(163.28)" style="fill:#37474f"></rect><rect x="364.47" y="210.64" width="1" height="1.66" transform="translate(735.16 281) rotate(163.28)" style="fill:#37474f"></rect><rect x="362.67" y="211.18" width="1" height="1.66" transform="translate(731.8 282.54) rotate(163.28)" style="fill:#37474f"></rect><rect x="355.48" y="213.34" width="1" height="1.66" transform="translate(718.33 288.87) rotate(163.28)" style="fill:#37474f"></rect><rect x="353.68" y="213.88" width="1" height="1.66" transform="translate(714.97 290.42) rotate(163.28)" style="fill:#37474f"></rect><rect x="351.88" y="214.42" width="1" height="1.66" transform="translate(711.6 292.02) rotate(163.28)" style="fill:#37474f"></rect><rect x="350.08" y="214.96" width="1" height="1.66" transform="translate(708.23 293.6) rotate(163.28)" style="fill:#37474f"></rect><rect x="348.28" y="215.5" width="1" height="1.66" transform="translate(704.87 295.15) rotate(163.28)" style="fill:#37474f"></rect><rect x="346.48" y="216.04" width="1" height="1.66" transform="translate(701.5 296.75) rotate(163.28)" style="fill:#37474f"></rect><rect x="344.68" y="216.58" width="1" height="1.66" transform="translate(698.13 298.32) rotate(163.28)" style="fill:#37474f"></rect><rect x="342.88" y="217.12" width="1" height="1.66" transform="translate(694.77 299.87) rotate(163.28)" style="fill:#37474f"></rect><rect x="341.09" y="217.66" width="1" height="1.66" transform="translate(691.4 301.47) rotate(163.28)" style="fill:#37474f"></rect><rect x="339.29" y="218.2" width="1" height="1.66" transform="translate(688.04 303.02) rotate(163.28)" style="fill:#37474f"></rect><rect x="337.49" y="218.74" width="1" height="1.66" transform="translate(684.67 304.6) rotate(163.28)" style="fill:#37474f"></rect><path d="M415.45,201.8c1.19-.41,2.3-.83,3.41-1.19l-.11.19c-.65-1.92-1.23-3.86-1.84-5.8l.31.17-3.46,1,.15-.27c.53,1.91,1,3.84,1.54,5.9Zm0,0c-.66-1.89-1.38-3.94-2-6l.21-.06,3.44-1.07.24-.08.07.25c.58,2,1.18,4,1.7,6-1.23.35-2.48.63-3.64.93Z" transform="translate(-40.18 -28.02)" style="fill:#c7c7c7"></path><path d="M299.5,227.07c4.86-2.38,47.25-15.1,69.5-21.78,17.78-5.34,41.51-12.44,50-14.27a29.86,29.86,0,0,1,5.34-.73h0a16,16,0,0,0-6.28,0c-4.43,1.05-20.32,5.43-53.6,15.43S306.59,224,301,226.12A4,4,0,0,0,299.5,227.07Z" transform="translate(-40.18 -28.02)" style="fill:#dbdbdb"></path><path d="M310.17,223l-1.68.54L303.92,225l-8.41-11.56-2.42-3.33c4.53-.35,9.52-.16,12.49,1.75C309.1,214.17,310.05,219.05,310.17,223Z" transform="translate(-40.18 -28.02)" style="fill:#37474f"></path><path d="M308.49,223.58,303.92,225l-8.41-11.56c4.44,1.18,9.17,3.05,11.36,5.89A8.36,8.36,0,0,1,308.49,223.58Z" transform="translate(-40.18 -28.02)" style="fill:#EF6603"></path></g><g id="freepik--Tower--inject-10"><rect x="65.86" y="145.36" width="50.37" height="267.03" style="fill:#EF6603"></rect><rect x="65.86" y="145.36" width="50.37" height="267.03" style="fill:#fff;opacity:0.5"></rect><polygon points="65.86 145.36 65.86 149.93 116.23 154.26 116.23 145.36 65.86 145.36" style="fill:#EF6603;opacity:0.5"></polygon><rect x="65.86" y="228.22" width="50.37" height="13.42" style="fill:#EF6603;opacity:0.5"></rect><rect x="65.86" y="254.38" width="50.37" height="13.42" style="fill:#EF6603;opacity:0.5"></rect><rect x="65.86" y="280.54" width="50.37" height="13.42" style="fill:#EF6603;opacity:0.5"></rect><rect x="65.86" y="306.7" width="50.37" height="105.69" style="fill:#EF6603;opacity:0.5"></rect><rect x="98.91" y="145.36" width="12.7" height="267.03" style="fill:#fff;opacity:0.4"></rect><rect x="68.7" y="60.33" width="44.69" height="14.08" style="fill:#455a64"></rect><rect x="68.7" y="60.33" width="10.78" height="14.08" style="fill:#fff;opacity:0.4"></rect><rect x="83.01" y="34.29" width="16.06" height="26.04" style="fill:#EF6603"></rect><rect x="85.37" y="34.29" width="4.71" height="26.04" style="fill:#fff;opacity:0.4"></rect><rect x="83.01" y="41.47" width="16.06" height="3.08" style="fill:#455a64"></rect><rect x="83.01" y="46.96" width="16.06" height="3.08" style="fill:#455a64"></rect><rect x="83.01" y="52.45" width="16.06" height="3.08" style="fill:#455a64"></rect><rect x="88.71" y="13.48" width="4.66" height="20.81" style="fill:#455a64"></rect><rect x="90.36" width="1.36" height="20.07" style="fill:#455a64"></rect><path d="M197.83,89.73c-6.69,4.67-17,3.84-24.86-2.53s-10.86-16.26-7.69-23.78Z" transform="translate(-40.18 -28.02)" style="fill:#c7c7c7"></path><polygon points="127.81 74.41 124.81 74.41 124.81 65.11 143.63 44.52 145.84 46.54 127.81 66.28 127.81 74.41" style="fill:#c7c7c7"></polygon><polygon points="158.31 84.86 140.67 145.37 41.41 145.37 23.78 84.86 158.31 84.86" style="fill:#EF6603"></polygon><polygon points="158.31 84.86 140.67 145.37 41.41 145.37 23.78 84.86 158.31 84.86" style="fill:#fff;opacity:0.5"></polygon><polygon points="23.78 84.86 26.3 93.52 157.04 89.19 158.31 84.86 23.78 84.86" style="fill:#EF6603;opacity:0.5"></polygon><polygon points="36.05 98.12 36.05 119.13 33.76 119.13 27.63 98.12 36.05 98.12" style="fill:#455a64"></polygon><polygon points="34.66 122.22 36.05 122.22 36.05 126.99 34.66 122.22" style="fill:#455a64"></polygon><rect x="39.11" y="98.12" width="18.32" height="21.01" style="fill:#455a64"></rect><rect x="39.11" y="122.22" width="18.32" height="13.03" style="fill:#455a64"></rect><rect x="60.53" y="98.12" width="18.28" height="21.01" style="fill:#455a64"></rect><rect x="60.53" y="122.22" width="18.28" height="13.03" style="fill:#455a64"></rect><rect x="81.9" y="98.12" width="18.28" height="21.01" style="fill:#455a64"></rect><rect x="81.9" y="122.22" width="18.28" height="13.03" style="fill:#455a64"></rect><rect x="103.27" y="98.12" width="18.28" height="21.01" style="fill:#455a64"></rect><rect x="103.27" y="122.22" width="18.28" height="13.03" style="fill:#455a64"></rect><rect x="124.65" y="98.12" width="18.32" height="21.01" style="fill:#455a64"></rect><rect x="124.65" y="122.22" width="18.32" height="13.03" style="fill:#455a64"></rect><polygon points="146.01 122.22 147.41 122.22 146.01 127.02 146.01 122.22" style="fill:#455a64"></polygon><polygon points="154.44 98.12 148.31 119.13 146.01 119.13 146.01 98.12 154.44 98.12" style="fill:#455a64"></polygon><polygon points="27.64 98.12 36.06 98.12 36.06 103.76 29.29 103.76 27.64 98.12" style="opacity:0.30000000000000004"></polygon><rect x="39.12" y="98.12" width="18.32" height="5.64" style="opacity:0.30000000000000004"></rect><rect x="60.54" y="98.12" width="18.28" height="5.64" style="opacity:0.30000000000000004"></rect><rect x="81.91" y="98.12" width="18.28" height="5.64" style="opacity:0.30000000000000004"></rect><rect x="103.28" y="98.12" width="18.28" height="5.64" style="opacity:0.30000000000000004"></rect><rect x="124.66" y="98.12" width="18.32" height="5.64" style="opacity:0.30000000000000004"></rect><polygon points="154.45 98.12 152.8 103.76 146.02 103.76 146.02 98.12 154.45 98.12" style="opacity:0.30000000000000004"></polygon><polygon points="51.7 84.86 68.34 145.37 52.05 145.37 34.42 84.86 51.7 84.86" style="fill:#fff;opacity:0.4"></polygon><polygon points="59.64 84.86 76.28 145.37 73.19 145.37 55.56 84.86 59.64 84.86" style="fill:#fff;opacity:0.4"></polygon><polygon points="158.31 84.86 23.78 84.86 33.78 74.41 148.31 74.41 158.31 84.86" style="fill:#EF6603"></polygon><polygon points="158.31 84.86 23.78 84.86 33.78 74.41 148.31 74.41 158.31 84.86" style="fill:#fff;opacity:0.6000000000000001"></polygon><rect x="33.78" y="69.64" width="3.52" height="4.77" style="fill:#EF6603"></rect><rect x="129.43" y="38.67" width="3.52" height="114.47" transform="translate(186.91 -63.31) rotate(90)" style="fill:#EF6603"></rect><rect x="70.76" y="69.64" width="3.52" height="4.77" style="fill:#EF6603"></rect><rect x="107.74" y="69.64" width="3.52" height="4.77" style="fill:#EF6603"></rect><rect x="144.72" y="69.64" width="3.52" height="4.77" style="fill:#EF6603"></rect><g style="opacity:0.6000000000000001"><rect x="33.78" y="69.64" width="3.52" height="4.77" style="fill:#fff"></rect><rect x="129.43" y="38.67" width="3.52" height="114.47" transform="translate(186.91 -63.31) rotate(90)" style="fill:#fff"></rect><rect x="70.76" y="69.64" width="3.52" height="4.77" style="fill:#fff"></rect><rect x="107.74" y="69.64" width="3.52" height="4.77" style="fill:#fff"></rect><rect x="144.72" y="69.64" width="3.52" height="4.77" style="fill:#fff"></rect></g><rect x="51.75" y="163.84" width="78.58" height="32.37" style="fill:#EF6603"></rect><rect x="51.75" y="163.84" width="78.58" height="32.37" style="fill:#fff;opacity:0.5"></rect><rect x="51.75" y="163.84" width="13.86" height="32.37" style="fill:#455a64"></rect><rect x="67.96" y="163.84" width="13.83" height="32.37" style="fill:#455a64"></rect><rect x="84.13" y="163.84" width="13.83" height="32.37" style="fill:#455a64"></rect><rect x="100.3" y="163.84" width="13.83" height="32.37" style="fill:#455a64"></rect><rect x="116.47" y="163.84" width="13.86" height="32.37" style="fill:#455a64"></rect><rect x="51.75" y="163.85" width="13.87" height="5.64" style="opacity:0.30000000000000004"></rect><rect x="67.96" y="163.85" width="13.83" height="5.64" style="opacity:0.30000000000000004"></rect><rect x="84.13" y="163.85" width="13.83" height="5.64" style="opacity:0.30000000000000004"></rect><rect x="100.3" y="163.85" width="13.83" height="5.64" style="opacity:0.30000000000000004"></rect><rect x="116.47" y="163.85" width="13.87" height="5.64" style="opacity:0.30000000000000004"></rect><rect x="57.43" y="163.84" width="12.89" height="32.37" style="fill:#fff;opacity:0.4"></rect><rect x="73.48" y="163.84" width="3.32" height="32.37" style="fill:#fff;opacity:0.4"></rect><polygon points="51.75 196.22 130.33 196.22 124.49 202.53 57.59 202.53 51.75 196.22" style="fill:#EF6603"></polygon><polygon points="51.75 196.22 130.33 196.22 124.49 202.53 57.59 202.53 51.75 196.22" style="fill:#fff;opacity:0.30000000000000004"></polygon><rect x="47.63" y="161.44" width="86.83" height="2.4" style="fill:#EF6603"></rect><rect x="47.63" y="161.44" width="86.83" height="2.4" style="fill:#fff;opacity:0.5"></rect></g><g id="freepik--Building--inject-10"><path d="M358.58,354.51H141.42c0-58.63,50-106.16,108.58-106.16S358.58,295.88,358.58,354.51Z" transform="translate(-40.18 -28.02)" style="fill:#EF6603"></path><path d="M358.58,354.51H141.42c0-58.63,50-106.16,108.58-106.16S358.58,295.88,358.58,354.51Z" transform="translate(-40.18 -28.02)" style="fill:#fff;opacity:0.5"></path><path d="M345.79,354.51H147.63c0-53.66,45.58-97.17,99.08-97.17S345.79,300.85,345.79,354.51Z" transform="translate(-40.18 -28.02)" style="fill:#EF6603;opacity:0.5"></path><path d="M165.24,311.92v6.84h-3.11C163.07,316.44,164.12,314.15,165.24,311.92Z" transform="translate(-40.18 -28.02)" style="fill:#455a64"></path><path d="M161.13,321.32h4.11v19.42h-9.09A94.29,94.29,0,0,1,161.13,321.32Z" transform="translate(-40.18 -28.02)" style="fill:#455a64"></path><path d="M155.81,343.3h9.43v11.21H155.15A96.55,96.55,0,0,1,155.81,343.3Z" transform="translate(-40.18 -28.02)" style="fill:#455a64"></path><path d="M193.06,278.63v18.16H174.74A95.49,95.49,0,0,1,193.06,278.63Z" transform="translate(-40.18 -28.02)" style="fill:#455a64"></path><path d="M172.85,299.34h20.21v19.42H167.79V307.17C169.35,304.48,171,301.86,172.85,299.34Z" transform="translate(-40.18 -28.02)" style="fill:#455a64"></path><rect x="127.61" y="293.29" width="25.27" height="19.43" style="fill:#455a64"></rect><rect x="127.61" y="315.27" width="25.27" height="11.21" style="fill:#455a64"></rect><path d="M220.89,264.22v10.59H198.55A94.26,94.26,0,0,1,220.89,264.22Z" transform="translate(-40.18 -28.02)" style="fill:#455a64"></path><rect x="155.44" y="249.34" width="25.27" height="19.43" style="fill:#455a64"></rect><rect x="155.44" y="271.31" width="25.27" height="19.43" style="fill:#455a64"></rect><rect x="155.44" y="293.29" width="25.27" height="19.43" style="fill:#455a64"></rect><rect x="155.44" y="315.27" width="25.27" height="11.21" style="fill:#455a64"></rect><path d="M248.72,259.68v15.13H223.44V263.44A94.21,94.21,0,0,1,248.72,259.68Z" transform="translate(-40.18 -28.02)" style="fill:#455a64"></path><rect x="183.26" y="249.34" width="25.28" height="19.43" style="fill:#455a64"></rect><rect x="183.26" y="271.31" width="25.28" height="19.43" style="fill:#455a64"></rect><rect x="183.26" y="293.29" width="25.28" height="19.43" style="fill:#455a64"></rect><rect x="183.26" y="315.27" width="25.28" height="11.21" style="fill:#455a64"></rect><path d="M276.55,263.44v11.37H251.27V259.68A94.15,94.15,0,0,1,276.55,263.44Z" transform="translate(-40.18 -28.02)" style="fill:#455a64"></path><rect x="211.08" y="249.34" width="25.28" height="19.43" style="fill:#455a64"></rect><rect x="211.08" y="271.31" width="25.28" height="19.43" style="fill:#455a64"></rect><rect x="211.08" y="293.29" width="25.28" height="19.43" style="fill:#455a64"></rect><rect x="211.08" y="315.27" width="25.28" height="11.21" style="fill:#455a64"></rect><path d="M301.43,274.81H279.1V264.22A94.19,94.19,0,0,1,301.43,274.81Z" transform="translate(-40.18 -28.02)" style="fill:#455a64"></path><rect x="238.91" y="249.34" width="25.27" height="19.43" style="fill:#455a64"></rect><rect x="238.91" y="271.31" width="25.27" height="19.43" style="fill:#455a64"></rect><rect x="238.91" y="293.29" width="25.27" height="19.43" style="fill:#455a64"></rect><rect x="238.91" y="315.27" width="25.27" height="11.21" style="fill:#455a64"></rect><path d="M325.25,296.79H306.92V278.63A95.26,95.26,0,0,1,325.25,296.79Z" transform="translate(-40.18 -28.02)" style="fill:#455a64"></path><path d="M332.2,307.17v11.59H306.92V299.34h20.22A90.87,90.87,0,0,1,332.2,307.17Z" transform="translate(-40.18 -28.02)" style="fill:#455a64"></path><rect x="266.74" y="293.29" width="25.27" height="19.43" style="fill:#455a64"></rect><rect x="266.74" y="315.27" width="25.27" height="11.21" style="fill:#455a64"></rect><path d="M337.86,318.76h-3.11v-6.84C335.88,314.15,336.92,316.44,337.86,318.76Z" transform="translate(-40.18 -28.02)" style="fill:#455a64"></path><path d="M343.84,340.74h-9.09V321.32h4.11A94.29,94.29,0,0,1,343.84,340.74Z" transform="translate(-40.18 -28.02)" style="fill:#455a64"></path><path d="M344.83,354.51H334.75V343.3h9.43A96.55,96.55,0,0,1,344.83,354.51Z" transform="translate(-40.18 -28.02)" style="fill:#455a64"></path><path d="M155.15,354.51c0-58.43,48.86-95.93,94.85-94.83,0,0-69.57,23.86-70.88,94.83Z" transform="translate(-40.18 -28.02)" style="opacity:0.30000000000000004"></path><g style="opacity:0.1"><polygon points="178.35 315.27 180.72 315.27 180.72 326.49 167.14 326.49 178.35 315.27" style="fill:#fff"></polygon><polygon points="183.26 315.27 192.32 315.27 183.26 324.34 183.26 315.27" style="fill:#fff"></polygon><polygon points="202.88 290.74 208.54 285.08 208.54 290.74 202.88 290.74" style="fill:#fff"></polygon><polygon points="200.34 293.29 208.54 293.29 208.54 299.05 194.88 312.71 183.26 312.71 183.26 310.37 200.34 293.29" style="fill:#fff"></polygon><polygon points="211.08 293.29 214.31 293.29 211.08 296.51 211.08 293.29" style="fill:#fff"></polygon><polygon points="222.32 271.31 236.29 271.31 216.85 290.74 211.08 290.74 211.08 282.54 222.32 271.31" style="fill:#fff"></polygon><polygon points="224.86 268.77 236.37 257.26 236.37 268.77 224.86 268.77" style="fill:#fff"></polygon><polygon points="244.28 249.35 258.25 249.35 238.91 268.69 238.91 254.72 244.28 249.35" style="fill:#fff"></polygon><path d="M301.17,274.63l-.18.18H287l5.24-5.24A97.38,97.38,0,0,1,301.17,274.63Z" transform="translate(-40.18 -28.02)" style="fill:#fff"></path><polygon points="284.66 290.74 292.02 283.38 292.02 290.74 284.66 290.74" style="fill:#fff"></polygon><polygon points="262.69 312.71 264.19 311.21 264.19 312.71 262.69 312.71" style="fill:#fff"></polygon><polygon points="260.13 315.27 264.19 315.27 264.19 325.18 262.88 326.49 248.91 326.49 260.13 315.27" style="fill:#fff"></polygon><polygon points="266.74 315.27 274.1 315.27 266.74 322.63 266.74 315.27" style="fill:#fff"></polygon><polygon points="292.02 293.29 292.02 297.35 276.66 312.71 266.74 312.71 266.74 308.66 282.11 293.29 292.02 293.29" style="fill:#fff"></polygon><polygon points="294.57 293.29 296.08 293.29 294.57 294.8 294.57 293.29" style="fill:#fff"></polygon><path d="M337.86,318.77h-3.1v-6.85C335.89,314.14,336.91,316.44,337.86,318.77Z" transform="translate(-40.18 -28.02)" style="fill:#fff"></path><polygon points="140.83 315.27 150.06 315.27 138.84 326.49 129.62 326.49 140.83 315.27" style="fill:#fff"></polygon><polygon points="152.88 303.23 152.88 312.45 152.62 312.71 143.39 312.71 152.88 303.23" style="fill:#fff"></polygon><polygon points="162.81 293.29 172.04 293.29 155.44 309.89 155.44 300.67 162.81 293.29" style="fill:#fff"></polygon><polygon points="180.72 275.39 180.72 284.62 174.59 290.74 165.36 290.74 180.72 275.39" style="fill:#fff"></polygon><polygon points="184.8 271.31 194.02 271.31 183.26 282.08 183.26 272.85 184.8 271.31" style="fill:#fff"></polygon><polygon points="206.76 249.35 208.54 249.35 208.54 256.79 196.56 268.77 187.34 268.77 206.76 249.35" style="fill:#fff"></polygon><polygon points="211.08 249.35 215.99 249.35 211.08 254.25 211.08 249.35" style="fill:#fff"></polygon><path d="M271.44,262.1l-12.71,12.71h-7.47v-1.76l12.41-12.4C266.29,261,268.89,261.5,271.44,262.1Z" transform="translate(-40.18 -28.02)" style="fill:#fff"></path><path d="M174.23,299.33h1.14l-7.21,7.21c.59-1,1.2-2,1.84-3Z" transform="translate(-40.18 -28.02)" style="fill:#fff"></path><polygon points="152.88 252.47 152.88 253.62 137.73 268.77 136.58 268.77 152.88 252.47" style="fill:#fff"></polygon><polygon points="156.01 249.35 157.16 249.35 155.44 251.06 155.44 249.92 156.01 249.35" style="fill:#fff"></polygon><path d="M202,272.67l-2.13,2.14h-1.15l.33-.33C200.05,273.85,201,273.25,202,272.67Z" transform="translate(-40.18 -28.02)" style="fill:#fff"></path><polygon points="232.75 326.49 236.37 322.87 236.37 324.01 233.9 326.49 232.75 326.49" style="fill:#fff"></polygon><polygon points="243.96 315.27 245.11 315.27 238.91 321.47 238.91 320.32 243.96 315.27" style="fill:#fff"></polygon><polygon points="246.52 312.71 264.19 295.05 264.19 296.19 247.67 312.71 246.52 312.71" style="fill:#fff"></polygon><polygon points="266.74 293.29 267.09 293.29 266.74 293.65 266.74 293.29" style="fill:#fff"></polygon><path d="M328,300.58l-18.2,18.19h-1.14l18.86-18.87Z" transform="translate(-40.18 -28.02)" style="fill:#fff"></path><polygon points="250.25 315.27 251.4 315.27 240.18 326.49 239.03 326.49 250.25 315.27" style="fill:#fff"></polygon><polygon points="252.81 312.71 264.19 301.33 264.19 302.48 253.95 312.71 252.81 312.71" style="fill:#fff"></polygon><polygon points="272.23 293.29 273.38 293.29 266.74 299.93 266.74 298.78 272.23 293.29" style="fill:#fff"></polygon><path d="M330.51,304.37l-14.4,14.4H315l15.11-15.11C330.22,303.89,330.37,304.12,330.51,304.37Z" transform="translate(-40.18 -28.02)" style="fill:#fff"></path><polygon points="170.76 315.27 171.91 315.27 160.69 326.49 159.55 326.49 170.76 315.27" style="fill:#fff"></polygon><polygon points="173.32 312.71 180.72 305.32 180.72 306.47 174.47 312.71 173.32 312.71" style="fill:#fff"></polygon><polygon points="192.74 293.29 193.89 293.29 183.26 303.93 183.26 302.78 192.74 293.29" style="fill:#fff"></polygon><polygon points="195.29 290.74 208.54 277.49 208.54 278.64 196.44 290.74 195.29 290.74" style="fill:#fff"></polygon><polygon points="215.87 271.31 211.08 276.1 211.08 274.95 214.72 271.31 215.87 271.31" style="fill:#fff"></polygon><polygon points="236.37 249.66 236.37 250.81 218.41 268.77 217.26 268.77 236.37 249.66" style="fill:#fff"></polygon><path d="M287.86,267.53l-7.28,7.28h-1.15l7.63-7.63Z" transform="translate(-40.18 -28.02)" style="fill:#fff"></path></g><rect x="37.4" y="335.42" width="344.9" height="76.97" style="fill:#EF6603"></rect><rect x="37.4" y="335.42" width="344.9" height="76.97" style="fill:#fff;opacity:0.5"></rect><rect x="63.96" y="340.99" width="13.62" height="99.42" transform="translate(101.36 753.38) rotate(180)" style="fill:#EF6603"></rect><rect x="63.96" y="340.99" width="13.62" height="99.42" transform="translate(101.36 753.38) rotate(180)" style="fill:#fff;opacity:0.30000000000000004"></rect><rect x="422.42" y="340.99" width="13.62" height="99.42" transform="translate(818.28 753.38) rotate(180)" style="fill:#EF6603"></rect><rect x="422.42" y="340.99" width="13.62" height="99.42" transform="translate(818.28 753.38) rotate(180)" style="fill:#fff;opacity:0.30000000000000004"></rect><rect x="406.78" y="385.57" width="12.57" height="32.94" transform="translate(785.94 776.05) rotate(180)" style="fill:#455a64"></rect><rect x="391.25" y="385.57" width="12.57" height="32.94" transform="translate(754.89 776.05) rotate(180)" style="fill:#455a64"></rect><rect x="375.73" y="385.57" width="12.57" height="32.94" transform="translate(723.83 776.05) rotate(180)" style="fill:#455a64"></rect><rect x="360.2" y="385.57" width="12.57" height="32.94" transform="translate(692.78 776.05) rotate(180)" style="fill:#455a64"></rect><rect x="344.67" y="385.57" width="12.57" height="32.94" transform="translate(661.73 776.05) rotate(180)" style="fill:#455a64"></rect><rect x="329.15" y="385.57" width="12.57" height="32.94" transform="translate(630.68 776.05) rotate(180)" style="fill:#455a64"></rect><rect x="313.62" y="385.57" width="12.57" height="32.94" transform="translate(599.62 776.05) rotate(180)" style="fill:#455a64"></rect><rect x="298.09" y="385.57" width="12.57" height="32.94" transform="translate(568.57 776.05) rotate(180)" style="fill:#455a64"></rect><rect x="282.57" y="385.57" width="12.57" height="32.94" transform="translate(537.52 776.05) rotate(180)" style="fill:#455a64"></rect><rect x="267.04" y="385.57" width="12.57" height="32.94" transform="translate(506.46 776.05) rotate(180)" style="fill:#455a64"></rect><rect x="251.51" y="385.57" width="12.57" height="32.94" transform="translate(475.41 776.05) rotate(180)" style="fill:#455a64"></rect><rect x="235.99" y="385.57" width="12.57" height="32.94" transform="translate(444.36 776.05) rotate(180)" style="fill:#455a64"></rect><rect x="220.46" y="385.57" width="12.57" height="32.94" transform="translate(413.3 776.05) rotate(180)" style="fill:#455a64"></rect><rect x="204.93" y="385.57" width="12.57" height="32.94" transform="translate(382.25 776.05) rotate(180)" style="fill:#455a64"></rect><rect x="189.41" y="385.57" width="12.57" height="32.94" transform="translate(351.2 776.05) rotate(180)" style="fill:#455a64"></rect><rect x="173.88" y="385.57" width="12.57" height="32.94" transform="translate(320.14 776.05) rotate(180)" style="fill:#455a64"></rect><rect x="158.35" y="385.57" width="12.57" height="32.94" transform="translate(289.09 776.05) rotate(180)" style="fill:#455a64"></rect><rect x="142.83" y="385.57" width="12.57" height="32.94" transform="translate(258.04 776.05) rotate(180)" style="fill:#455a64"></rect><rect x="127.3" y="385.57" width="12.57" height="32.94" transform="translate(226.98 776.05) rotate(180)" style="fill:#455a64"></rect><rect x="111.77" y="385.57" width="12.57" height="32.94" transform="translate(195.93 776.05) rotate(180)" style="fill:#455a64"></rect><rect x="96.25" y="385.57" width="12.57" height="32.94" transform="translate(164.88 776.05) rotate(180)" style="fill:#455a64"></rect><rect x="80.72" y="385.57" width="12.57" height="32.94" transform="translate(133.83 776.05) rotate(180)" style="fill:#455a64"></rect><rect x="406.78" y="363.44" width="12.57" height="18.51" transform="translate(785.94 717.36) rotate(180)" style="fill:#455a64"></rect><rect x="391.25" y="363.44" width="12.57" height="18.51" transform="translate(754.89 717.36) rotate(180)" style="fill:#455a64"></rect><rect x="375.73" y="363.44" width="12.57" height="18.51" transform="translate(723.83 717.36) rotate(180)" style="fill:#455a64"></rect><rect x="360.2" y="363.44" width="12.57" height="18.51" transform="translate(692.78 717.36) rotate(180)" style="fill:#455a64"></rect><rect x="344.67" y="363.44" width="12.57" height="18.51" transform="translate(661.73 717.36) rotate(180)" style="fill:#455a64"></rect><rect x="329.15" y="363.44" width="12.57" height="18.51" transform="translate(630.68 717.36) rotate(180)" style="fill:#455a64"></rect><rect x="313.62" y="363.44" width="12.57" height="18.51" transform="translate(599.62 717.36) rotate(180)" style="fill:#455a64"></rect><rect x="298.09" y="363.44" width="12.57" height="18.51" transform="translate(568.57 717.36) rotate(180)" style="fill:#455a64"></rect><rect x="282.57" y="363.44" width="12.57" height="18.51" transform="translate(537.52 717.36) rotate(180)" style="fill:#455a64"></rect><rect x="267.04" y="363.44" width="12.57" height="18.51" transform="translate(506.46 717.36) rotate(180)" style="fill:#455a64"></rect><rect x="251.51" y="363.44" width="12.57" height="18.51" transform="translate(475.41 717.36) rotate(180)" style="fill:#455a64"></rect><rect x="235.99" y="363.44" width="12.57" height="18.51" transform="translate(444.36 717.36) rotate(180)" style="fill:#455a64"></rect><rect x="220.46" y="363.44" width="12.57" height="18.51" transform="translate(413.3 717.36) rotate(180)" style="fill:#455a64"></rect><rect x="204.93" y="363.44" width="12.57" height="18.51" transform="translate(382.25 717.36) rotate(180)" style="fill:#455a64"></rect><rect x="189.41" y="363.44" width="12.57" height="18.51" transform="translate(351.2 717.36) rotate(180)" style="fill:#455a64"></rect><rect x="173.88" y="363.44" width="12.57" height="18.51" transform="translate(320.14 717.36) rotate(180)" style="fill:#455a64"></rect><rect x="158.35" y="363.44" width="12.57" height="18.51" transform="translate(289.09 717.36) rotate(180)" style="fill:#455a64"></rect><rect x="142.83" y="363.44" width="12.57" height="18.51" transform="translate(258.04 717.36) rotate(180)" style="fill:#455a64"></rect><rect x="127.3" y="363.44" width="12.57" height="18.51" transform="translate(226.98 717.36) rotate(180)" style="fill:#455a64"></rect><rect x="111.77" y="363.44" width="12.57" height="18.51" transform="translate(195.93 717.36) rotate(180)" style="fill:#455a64"></rect><rect x="96.25" y="363.44" width="12.57" height="18.51" transform="translate(164.88 717.36) rotate(180)" style="fill:#455a64"></rect><rect x="80.72" y="363.44" width="12.57" height="18.51" transform="translate(133.83 717.36) rotate(180)" style="fill:#455a64"></rect><rect x="406.78" y="421.91" width="12.57" height="18.51" transform="translate(785.94 834.29) rotate(180)" style="fill:#455a64"></rect><rect x="391.25" y="421.91" width="12.57" height="18.51" transform="translate(754.89 834.29) rotate(180)" style="fill:#455a64"></rect><rect x="375.73" y="421.91" width="12.57" height="18.51" transform="translate(723.83 834.29) rotate(180)" style="fill:#455a64"></rect><rect x="360.2" y="421.91" width="12.57" height="18.51" transform="translate(692.78 834.29) rotate(180)" style="fill:#455a64"></rect><rect x="344.67" y="421.91" width="28.09" height="18.51" transform="translate(677.25 834.29) rotate(180)" style="fill:#455a64"></rect><rect x="329.15" y="421.91" width="12.57" height="18.51" transform="translate(630.68 834.29) rotate(180)" style="fill:#455a64"></rect><rect x="313.62" y="421.91" width="12.57" height="18.51" transform="translate(599.62 834.29) rotate(180)" style="fill:#455a64"></rect><rect x="298.09" y="421.91" width="28.09" height="18.51" transform="translate(584.1 834.29) rotate(180)" style="fill:#455a64"></rect><rect x="282.57" y="421.91" width="12.57" height="18.51" transform="translate(537.52 834.29) rotate(180)" style="fill:#455a64"></rect><rect x="267.04" y="421.91" width="12.57" height="18.51" transform="translate(506.46 834.29) rotate(180)" style="fill:#455a64"></rect><rect x="251.51" y="421.91" width="12.57" height="18.51" transform="translate(475.41 834.29) rotate(180)" style="fill:#455a64"></rect><rect x="235.99" y="421.91" width="12.57" height="18.51" transform="translate(444.36 834.29) rotate(180)" style="fill:#455a64"></rect><rect x="220.46" y="421.91" width="12.57" height="18.51" transform="translate(413.3 834.29) rotate(180)" style="fill:#455a64"></rect><rect x="204.93" y="421.91" width="12.57" height="18.51" transform="translate(382.25 834.29) rotate(180)" style="fill:#455a64"></rect><rect x="189.41" y="421.91" width="12.57" height="18.51" transform="translate(351.2 834.29) rotate(180)" style="fill:#455a64"></rect><rect x="173.88" y="421.91" width="28.09" height="18.51" transform="translate(335.67 834.29) rotate(180)" style="fill:#455a64"></rect><rect x="158.35" y="421.91" width="12.57" height="18.51" transform="translate(289.09 834.29) rotate(180)" style="fill:#455a64"></rect><rect x="142.83" y="421.91" width="12.57" height="18.51" transform="translate(258.04 834.29) rotate(180)" style="fill:#455a64"></rect><rect x="127.3" y="421.91" width="28.09" height="18.51" transform="translate(242.51 834.29) rotate(180)" style="fill:#455a64"></rect><rect x="111.77" y="421.91" width="12.57" height="18.51" transform="translate(195.93 834.29) rotate(180)" style="fill:#455a64"></rect><rect x="96.25" y="421.91" width="12.57" height="18.51" transform="translate(164.88 834.29) rotate(180)" style="fill:#455a64"></rect><rect x="80.72" y="421.91" width="12.57" height="18.51" transform="translate(133.83 834.29) rotate(180)" style="fill:#455a64"></rect><rect x="40.54" y="335.42" width="3.3" height="18.5" style="opacity:0.30000000000000004"></rect><rect x="40.54" y="357.55" width="3.3" height="32.93" style="opacity:0.30000000000000004"></rect><rect x="40.54" y="393.88" width="3.3" height="18.51" style="opacity:0.30000000000000004"></rect><rect x="56.06" y="335.42" width="3.3" height="18.5" style="opacity:0.30000000000000004"></rect><rect x="56.06" y="357.55" width="3.3" height="32.93" style="opacity:0.30000000000000004"></rect><rect x="56.06" y="393.88" width="3.3" height="18.51" style="opacity:0.30000000000000004"></rect><rect x="71.59" y="335.42" width="3.29" height="18.5" style="opacity:0.30000000000000004"></rect><rect x="71.59" y="357.55" width="3.29" height="32.93" style="opacity:0.30000000000000004"></rect><rect x="71.59" y="393.88" width="3.29" height="18.51" style="opacity:0.30000000000000004"></rect><rect x="87.12" y="335.42" width="3.29" height="18.5" style="opacity:0.30000000000000004"></rect><rect x="87.12" y="357.55" width="3.29" height="32.93" style="opacity:0.30000000000000004"></rect><rect x="87.12" y="393.88" width="3.29" height="18.51" style="opacity:0.30000000000000004"></rect><rect x="102.65" y="335.42" width="3.29" height="18.5" style="opacity:0.30000000000000004"></rect><rect x="102.65" y="357.55" width="3.29" height="32.93" style="opacity:0.30000000000000004"></rect><rect x="118.17" y="335.42" width="3.29" height="18.5" style="opacity:0.30000000000000004"></rect><rect x="118.17" y="357.55" width="3.29" height="32.93" style="opacity:0.30000000000000004"></rect><rect x="118.17" y="393.88" width="3.29" height="18.51" style="opacity:0.30000000000000004"></rect><rect x="133.7" y="335.42" width="3.29" height="18.5" style="opacity:0.30000000000000004"></rect><rect x="133.7" y="357.55" width="3.29" height="32.93" style="opacity:0.30000000000000004"></rect><rect x="133.7" y="393.88" width="3.29" height="18.51" style="opacity:0.30000000000000004"></rect><rect x="149.23" y="335.42" width="3.29" height="18.5" style="opacity:0.30000000000000004"></rect><rect x="149.23" y="357.55" width="3.29" height="32.93" style="opacity:0.30000000000000004"></rect><rect x="164.76" y="335.42" width="3.29" height="18.5" style="opacity:0.30000000000000004"></rect><rect x="164.76" y="357.55" width="3.29" height="32.93" style="opacity:0.30000000000000004"></rect><rect x="164.76" y="393.88" width="3.29" height="18.51" style="opacity:0.30000000000000004"></rect><rect x="180.27" y="335.42" width="3.3" height="18.5" style="opacity:0.30000000000000004"></rect><rect x="180.27" y="357.55" width="3.3" height="32.93" style="opacity:0.30000000000000004"></rect><rect x="180.27" y="393.88" width="3.3" height="18.51" style="opacity:0.30000000000000004"></rect><rect x="195.8" y="335.42" width="3.3" height="18.5" style="opacity:0.30000000000000004"></rect><rect x="195.8" y="357.55" width="3.3" height="32.93" style="opacity:0.30000000000000004"></rect><rect x="195.8" y="393.88" width="3.3" height="18.51" style="opacity:0.30000000000000004"></rect><rect x="211.33" y="335.42" width="3.3" height="18.5" style="opacity:0.30000000000000004"></rect><rect x="211.33" y="357.55" width="3.3" height="32.93" style="opacity:0.30000000000000004"></rect><rect x="211.33" y="393.88" width="3.3" height="18.51" style="opacity:0.30000000000000004"></rect><rect x="226.86" y="335.42" width="3.3" height="18.5" style="opacity:0.30000000000000004"></rect><rect x="226.86" y="357.55" width="3.3" height="32.93" style="opacity:0.30000000000000004"></rect><rect x="226.86" y="393.88" width="3.3" height="18.51" style="opacity:0.30000000000000004"></rect><rect x="242.38" y="335.42" width="3.29" height="18.5" style="opacity:0.30000000000000004"></rect><rect x="242.38" y="357.55" width="3.29" height="32.93" style="opacity:0.30000000000000004"></rect><rect x="242.38" y="393.88" width="3.29" height="18.51" style="opacity:0.30000000000000004"></rect><rect x="257.91" y="335.42" width="3.29" height="18.5" style="opacity:0.30000000000000004"></rect><rect x="257.91" y="357.55" width="3.29" height="32.93" style="opacity:0.30000000000000004"></rect><rect x="257.91" y="393.88" width="3.29" height="18.51" style="opacity:0.30000000000000004"></rect><rect x="273.44" y="335.42" width="3.29" height="18.5" style="opacity:0.30000000000000004"></rect><rect x="273.44" y="357.55" width="3.29" height="32.93" style="opacity:0.30000000000000004"></rect><rect x="288.97" y="335.42" width="3.29" height="18.5" style="opacity:0.30000000000000004"></rect><rect x="288.97" y="357.55" width="3.29" height="32.93" style="opacity:0.30000000000000004"></rect><rect x="288.97" y="393.88" width="3.29" height="18.51" style="opacity:0.30000000000000004"></rect><rect x="304.49" y="335.42" width="3.29" height="18.5" style="opacity:0.30000000000000004"></rect><rect x="304.49" y="357.55" width="3.29" height="32.93" style="opacity:0.30000000000000004"></rect><rect x="304.49" y="393.88" width="3.29" height="18.51" style="opacity:0.30000000000000004"></rect><rect x="320.02" y="335.42" width="3.29" height="18.5" style="opacity:0.30000000000000004"></rect><rect x="320.02" y="357.55" width="3.29" height="32.93" style="opacity:0.30000000000000004"></rect><rect x="335.54" y="335.42" width="3.3" height="18.5" style="opacity:0.30000000000000004"></rect><rect x="335.54" y="357.55" width="3.3" height="32.93" style="opacity:0.30000000000000004"></rect><rect x="335.54" y="393.88" width="3.3" height="18.51" style="opacity:0.30000000000000004"></rect><rect x="351.07" y="335.42" width="3.3" height="18.5" style="opacity:0.30000000000000004"></rect><rect x="351.07" y="357.55" width="3.3" height="32.93" style="opacity:0.30000000000000004"></rect><rect x="351.07" y="393.88" width="3.3" height="18.51" style="opacity:0.30000000000000004"></rect><rect x="366.59" y="335.42" width="3.3" height="18.5" style="opacity:0.30000000000000004"></rect><rect x="366.59" y="357.55" width="3.3" height="32.93" style="opacity:0.30000000000000004"></rect><rect x="366.59" y="393.88" width="3.3" height="18.51" style="opacity:0.30000000000000004"></rect><g style="opacity:0.1"><polygon points="40.54 357.54 43.34 357.54 40.54 360.35 40.54 357.54" style="fill:#fff"></polygon><polygon points="51.48 335.42 53.1 335.42 53.1 347.79 46.97 353.92 40.54 353.92 40.54 346.37 51.48 335.42" style="fill:#fff"></polygon><polygon points="65.46 335.42 56.06 344.82 56.06 335.42 65.46 335.42" style="fill:#fff"></polygon><polygon points="173.76 353.92 177.32 350.36 177.32 353.92 173.76 353.92" style="fill:#fff"></polygon><polygon points="146.27 390.49 137.18 390.49 146.27 381.41 146.27 390.49" style="fill:#fff"></polygon><polygon points="118.17 409.5 130.74 396.93 130.74 410.92 129.27 412.39 118.17 412.39 118.17 409.5" style="fill:#fff"></polygon><polygon points="147.77 393.88 133.7 407.96 133.7 393.97 133.79 393.88 147.77 393.88" style="fill:#fff"></polygon><polygon points="149.23 378.45 161.79 365.89 161.79 379.86 151.16 390.49 149.23 390.49 149.23 378.45" style="fill:#fff"></polygon><polygon points="177.32 357.54 177.32 364.33 164.75 376.9 164.75 362.93 170.13 357.54 177.32 357.54" style="fill:#fff"></polygon><polygon points="180.28 357.54 184.1 357.54 180.28 361.37 180.28 357.54" style="fill:#fff"></polygon><polygon points="192.85 335.42 192.85 348.8 187.73 353.92 180.28 353.92 180.28 347.4 192.26 335.42 192.85 335.42" style="fill:#fff"></polygon><polygon points="206.23 335.42 195.81 345.84 195.81 335.42 206.23 335.42" style="fill:#fff"></polygon><polygon points="360.59 353.92 363.64 350.87 363.64 353.92 360.59 353.92" style="fill:#fff"></polygon><polygon points="324.02 390.49 332.58 381.93 332.58 390.49 324.02 390.49" style="fill:#fff"></polygon><polygon points="320.63 393.88 332.58 393.88 332.58 395.9 320.01 408.47 316.1 412.39 304.49 412.39 304.49 410.01 320.63 393.88" style="fill:#fff"></polygon><polygon points="335.54 378.96 348.11 366.4 348.11 380.38 338 390.49 335.54 390.49 335.54 378.96" style="fill:#fff"></polygon><polygon points="363.64 357.54 363.64 364.85 351.07 377.42 351.07 363.44 356.96 357.54 363.64 357.54" style="fill:#fff"></polygon><polygon points="366.6 357.54 370.94 357.54 366.6 361.88 366.6 357.54" style="fill:#fff"></polygon><polygon points="379.16 335.42 379.16 349.33 374.57 353.92 366.6 353.92 366.6 347.91 379.09 335.42 379.16 335.42" style="fill:#fff"></polygon><polygon points="197.07 412.39 208.37 401.09 208.37 412.39 197.07 412.39" style="fill:#fff"></polygon><polygon points="218.97 390.49 223.9 385.56 223.9 390.49 218.97 390.49" style="fill:#fff"></polygon><polygon points="215.57 393.88 223.9 393.88 223.9 399.54 211.34 412.1 211.34 398.12 215.57 393.88" style="fill:#fff"></polygon><polygon points="226.85 393.88 229.54 393.88 226.85 396.58 226.85 393.88" style="fill:#fff"></polygon><polygon points="226.85 382.6 239.42 370.03 239.42 384 232.93 390.49 226.85 390.49 226.85 382.6" style="fill:#fff"></polygon><polygon points="254.95 357.54 254.95 368.47 242.38 381.04 242.38 367.07 251.91 357.54 254.95 357.54" style="fill:#fff"></polygon><polygon points="257.91 357.54 265.88 357.54 257.91 365.51 257.91 357.54" style="fill:#fff"></polygon><polygon points="257.91 351.54 270.47 338.98 270.47 352.95 269.5 353.92 257.91 353.92 257.91 351.54" style="fill:#fff"></polygon><polygon points="286 335.42 286 337.42 273.43 349.99 273.43 336.02 274.03 335.42 286 335.42" style="fill:#fff"></polygon><polygon points="40.54 384.24 53.1 371.68 53.1 380.91 43.52 390.49 40.54 390.49 40.54 384.24" style="fill:#fff"></polygon><polygon points="68.63 357.54 68.63 365.38 56.06 377.95 56.06 368.72 67.24 357.54 68.63 357.54" style="fill:#fff"></polygon><polygon points="71.59 357.54 76.47 357.54 71.59 362.42 71.59 357.54" style="fill:#fff"></polygon><polygon points="71.59 353.19 84.16 340.62 84.16 349.85 80.09 353.92 71.59 353.92 71.59 353.19" style="fill:#fff"></polygon><polygon points="98.59 335.42 87.12 346.89 87.12 337.66 89.36 335.42 98.59 335.42" style="fill:#fff"></polygon><polygon points="77.77 412.39 84.16 406 84.16 412.39 77.77 412.39" style="fill:#fff"></polygon><polygon points="99.69 390.49 99.67 390.49 99.69 390.47 99.69 390.49" style="fill:#fff"></polygon><polygon points="105.51 393.88 87.12 412.26 87.12 403.04 96.28 393.88 105.51 393.88" style="fill:#fff"></polygon><polygon points="102.65 387.51 115.21 374.95 115.21 384.18 108.9 390.49 102.65 390.49 102.65 387.51" style="fill:#fff"></polygon><polygon points="130.74 359.42 130.74 368.65 118.17 381.21 118.17 371.99 130.74 359.42" style="fill:#fff"></polygon><polygon points="133.7 357.54 141.84 357.54 133.7 365.69 133.7 357.54" style="fill:#fff"></polygon><polygon points="136.24 353.92 146.27 343.89 146.27 353.12 145.46 353.92 136.24 353.92" style="fill:#fff"></polygon><polygon points="161.79 335.42 161.79 337.6 149.23 350.16 149.23 340.93 154.74 335.42 161.79 335.42" style="fill:#fff"></polygon><polygon points="281.08 390.49 286 385.57 286 390.49 281.08 390.49" style="fill:#fff"></polygon><polygon points="277.69 393.88 286 393.88 286 394.79 268.41 412.39 259.18 412.39 277.69 393.88" style="fill:#fff"></polygon><polygon points="288.96 382.61 301.53 370.04 301.53 379.26 290.31 390.49 288.96 390.49 288.96 382.61" style="fill:#fff"></polygon><polygon points="317.05 357.54 317.05 363.74 304.49 376.3 304.49 367.08 314.03 357.54 317.05 357.54" style="fill:#fff"></polygon><polygon points="320.01 357.54 323.25 357.54 320.01 360.78 320.01 357.54" style="fill:#fff"></polygon><polygon points="320.01 351.56 332.58 338.99 332.58 348.21 326.88 353.92 320.01 353.92 320.01 351.56" style="fill:#fff"></polygon><polygon points="345.38 335.42 335.54 345.25 335.54 336.03 336.15 335.42 345.38 335.42" style="fill:#fff"></polygon><polygon points="45.53 393.88 46.68 393.88 40.54 400.01 40.54 398.86 45.53 393.88" style="fill:#fff"></polygon><polygon points="48.92 390.49 53.1 386.31 53.1 387.45 50.07 390.49 48.92 390.49" style="fill:#fff"></polygon><polygon points="56.06 383.34 68.63 370.77 68.63 371.92 56.06 384.49 56.06 383.34" style="fill:#fff"></polygon><polygon points="83.01 357.54 71.59 368.96 71.59 367.81 81.86 357.54 83.01 357.54" style="fill:#fff"></polygon><polygon points="87.12 352.29 99.69 339.72 99.69 340.87 87.12 353.43 87.12 352.29" style="fill:#fff"></polygon><polygon points="105.13 335.42 102.65 337.9 102.65 336.76 103.98 335.42 105.13 335.42" style="fill:#fff"></polygon><polygon points="351.07 412.13 363.64 399.56 363.64 400.7 351.96 412.39 351.07 412.39 351.07 412.13" style="fill:#fff"></polygon><polygon points="370.47 393.88 366.6 397.74 366.6 396.6 369.32 393.88 370.47 393.88" style="fill:#fff"></polygon><polygon points="379.16 384.04 379.16 385.18 373.86 390.49 372.71 390.49 379.16 384.04" style="fill:#fff"></polygon><polygon points="180.9 412.39 192.85 400.44 192.85 401.59 182.05 412.39 180.9 412.39" style="fill:#fff"></polygon><polygon points="200.56 393.88 195.81 398.63 195.81 397.48 199.41 393.88 200.56 393.88" style="fill:#fff"></polygon><polygon points="202.8 390.49 208.37 384.92 208.37 386.07 203.95 390.49 202.8 390.49" style="fill:#fff"></polygon><polygon points="211.34 381.95 223.9 369.39 223.9 370.54 211.34 383.1 211.34 381.95" style="fill:#fff"></polygon><polygon points="236.89 357.54 226.85 367.58 226.85 366.43 235.75 357.54 236.89 357.54" style="fill:#fff"></polygon><polygon points="239.37 353.92 239.42 353.86 239.42 353.92 239.37 353.92" style="fill:#fff"></polygon><polygon points="254.95 338.33 254.95 339.48 242.38 352.05 242.38 350.9 254.95 338.33" style="fill:#fff"></polygon><polygon points="259.02 335.42 257.91 336.52 257.91 335.42 259.02 335.42" style="fill:#fff"></polygon><polygon points="187.19 412.39 192.85 406.73 192.85 407.88 188.34 412.39 187.19 412.39" style="fill:#fff"></polygon><polygon points="206.84 393.88 195.81 404.92 195.81 403.77 205.69 393.88 206.84 393.88" style="fill:#fff"></polygon><polygon points="211.34 388.24 223.9 375.68 223.9 376.83 211.34 389.39 211.34 388.24" style="fill:#fff"></polygon><polygon points="239.42 360.15 239.42 361.3 226.85 373.87 226.85 372.72 239.42 360.15" style="fill:#fff"></polygon><polygon points="242.38 357.54 243.18 357.54 242.38 358.34 242.38 357.54" style="fill:#fff"></polygon><polygon points="265.3 335.42 257.91 342.81 254.95 345.77 246.8 353.92 245.65 353.92 254.95 344.62 257.91 341.66 264.15 335.42 265.3 335.42" style="fill:#fff"></polygon><polygon points="107.7 412.39 115.21 404.88 115.21 406.03 108.85 412.39 107.7 412.39" style="fill:#fff"></polygon><polygon points="127.36 393.88 118.17 403.07 118.17 401.92 126.21 393.88 127.36 393.88" style="fill:#fff"></polygon><polygon points="129.6 390.49 130.74 389.35 130.74 390.49 129.6 390.49" style="fill:#fff"></polygon><polygon points="133.7 386.39 146.27 373.82 146.27 374.97 133.7 387.54 133.7 386.39" style="fill:#fff"></polygon><polygon points="161.79 358.3 161.79 359.45 149.23 372.01 149.23 370.86 161.79 358.3" style="fill:#fff"></polygon><polygon points="166.17 353.92 177.32 342.77 177.32 343.92 167.31 353.92 166.17 353.92" style="fill:#fff"></polygon><polygon points="185.81 335.42 180.28 340.96 180.28 339.81 184.67 335.42 185.81 335.42" style="fill:#fff"></polygon><polygon points="273.81 412.39 286 400.19 286 401.34 274.96 412.39 273.81 412.39" style="fill:#fff"></polygon><polygon points="293.46 393.88 288.96 398.38 288.96 397.23 292.32 393.88 293.46 393.88" style="fill:#fff"></polygon><polygon points="295.7 390.49 301.53 384.66 301.53 385.81 296.85 390.49 295.7 390.49" style="fill:#fff"></polygon><polygon points="304.49 381.7 317.05 369.14 317.05 370.29 304.49 382.85 304.49 381.7" style="fill:#fff"></polygon><polygon points="329.8 357.54 320.01 367.33 320.01 366.18 328.65 357.54 329.8 357.54" style="fill:#fff"></polygon><polygon points="332.27 353.92 332.58 353.61 332.58 353.92 332.27 353.92" style="fill:#fff"></polygon><polygon points="348.11 338.08 348.11 339.23 335.54 351.8 335.54 350.65 348.11 338.08" style="fill:#fff"></polygon><polygon points="351.92 335.42 351.07 336.27 351.07 335.42 351.92 335.42" style="fill:#fff"></polygon></g><rect x="243.22" y="363.45" width="13.62" height="76.97" transform="translate(459.88 775.83) rotate(180)" style="fill:#EF6603"></rect><rect x="243.22" y="363.45" width="13.62" height="76.97" transform="translate(459.88 775.83) rotate(180)" style="fill:#fff;opacity:0.30000000000000004"></rect><rect x="37.4" y="312.96" width="344.9" height="22.46" style="fill:#EF6603"></rect><rect x="37.4" y="312.96" width="344.9" height="22.46" style="fill:#fff;opacity:0.5"></rect><g style="opacity:0.2"><path d="M178.81,355.29h-3.42l-.68,1.83a.8.8,0,0,1-.73.49.77.77,0,0,1-.27,0,.79.79,0,0,1-.47-1l3.11-8.28a.78.78,0,0,1,.74-.49.77.77,0,0,1,.75.49l3.11,8.28a.79.79,0,0,1-.47,1,.71.71,0,0,1-.26,0,.75.75,0,0,1-.72-.49Zm-.58-1.54-1.14-3-1.13,3Z" transform="translate(-40.18 -28.02)"></path><path d="M184.38,348.55a.77.77,0,0,1,.77-.78.78.78,0,0,1,.79.78v8.29a.78.78,0,0,1-.79.77.76.76,0,0,1-.77-.77Z" transform="translate(-40.18 -28.02)"></path><path d="M196.48,356.45a.77.77,0,0,1-.49,1,1.46,1.46,0,0,1-.31,0h0a1.09,1.09,0,0,1-.55-.15,1.45,1.45,0,0,1-.45-.5,3.7,3.7,0,0,1-.29-1.68,1.26,1.26,0,0,0-.17-.61,1.39,1.39,0,0,0-.43-.4,2.66,2.66,0,0,0-.78-.34h-1.66v3a.78.78,0,0,1-.79.77.77.77,0,0,1-.77-.77v-8.29a.77.77,0,0,1,.77-.78h2.52A3,3,0,0,1,195,353.1a2.22,2.22,0,0,1,.49.52,2.69,2.69,0,0,1,.47,1.52,3.25,3.25,0,0,0,.05.83A.74.74,0,0,1,196.48,356.45Zm-2-5.65a1.46,1.46,0,0,0-1.45-1.47h-1.73v2.9h1.73A1.45,1.45,0,0,0,194.52,350.8Z" transform="translate(-40.18 -28.02)"></path><path d="M203.46,353.79h-1.73v3a.78.78,0,0,1-1.56,0v-8.29a.77.77,0,0,1,.77-.78h2.52a3,3,0,1,1,0,6Zm-1.73-1.56h1.73a1.45,1.45,0,1,0,0-2.9h-1.73Z" transform="translate(-40.18 -28.02)"></path><path d="M217.53,349a5.16,5.16,0,0,1,0,7.11,4.6,4.6,0,0,1-3.36,1.5,4.77,4.77,0,0,1-3.44-1.5,5.24,5.24,0,0,1,0-7.11,4.7,4.7,0,0,1,3.44-1.51A4.54,4.54,0,0,1,217.53,349Zm-.18,3.55a3.68,3.68,0,0,0-.95-2.46,3.05,3.05,0,0,0-4.5,0,3.59,3.59,0,0,0-1,2.46,3.53,3.53,0,0,0,1,2.45,3,3,0,0,0,4.5,0A3.62,3.62,0,0,0,217.35,352.55Z" transform="translate(-40.18 -28.02)"></path><path d="M229.64,356.45a.77.77,0,0,1-.49,1,1.56,1.56,0,0,1-.31,0h0a1,1,0,0,1-.55-.15,1.45,1.45,0,0,1-.45-.5,3.68,3.68,0,0,1-.3-1.68,1.16,1.16,0,0,0-.17-.61,1.25,1.25,0,0,0-.42-.4,2.66,2.66,0,0,0-.78-.34H224.5v3a.79.79,0,0,1-.79.77.76.76,0,0,1-.77-.77v-8.29a.76.76,0,0,1,.77-.78h2.52a3,3,0,0,1,1.91,5.33,2.22,2.22,0,0,1,.49.52,2.68,2.68,0,0,1,.46,1.52,3.62,3.62,0,0,0,.06.83A.76.76,0,0,1,229.64,356.45Zm-2-5.65a1.45,1.45,0,0,0-1.44-1.47H224.5v2.9h1.73A1.44,1.44,0,0,0,227.67,350.8Z" transform="translate(-40.18 -28.02)"></path><path d="M239.06,349.33h-2.23v7.51a.78.78,0,0,1-1.55,0v-7.51h-2.22a.78.78,0,0,1-.77-.78.77.77,0,0,1,.77-.78h6a.77.77,0,0,1,.77.78A.79.79,0,0,1,239.06,349.33Z" transform="translate(-40.18 -28.02)"></path><path d="M255.21,349.33H253v7.51a.76.76,0,0,1-.77.77.78.78,0,0,1-.78-.77v-7.51H249.2a.78.78,0,0,1-.77-.78.77.77,0,0,1,.77-.78h6a.77.77,0,0,1,.77.78A.79.79,0,0,1,255.21,349.33Z" transform="translate(-40.18 -28.02)"></path><path d="M259.71,356.84v-8.29a.76.76,0,0,1,.77-.78h4.6a.78.78,0,0,1,0,1.56h-3.81v2.58h3.27a.78.78,0,0,1,0,1.56h-3.27v2.58h3.81a.78.78,0,0,1,0,1.56h-4.6A.76.76,0,0,1,259.71,356.84Z" transform="translate(-40.18 -28.02)"></path><path d="M276.24,356.45a.77.77,0,0,1-.49,1,1.56,1.56,0,0,1-.31,0h0a1,1,0,0,1-.54-.15,1.36,1.36,0,0,1-.45-.5,3.68,3.68,0,0,1-.3-1.68,1.16,1.16,0,0,0-.17-.61,1.25,1.25,0,0,0-.42-.4,2.58,2.58,0,0,0-.79-.34H271.1v3a.79.79,0,0,1-.79.77.76.76,0,0,1-.77-.77v-8.29a.76.76,0,0,1,.77-.78h2.51a3,3,0,0,1,1.92,5.33,2.22,2.22,0,0,1,.49.52,2.68,2.68,0,0,1,.46,1.52,3.62,3.62,0,0,0,.06.83A.76.76,0,0,1,276.24,356.45Zm-2-5.65a1.45,1.45,0,0,0-1.45-1.47H271.1v2.9h1.72A1.44,1.44,0,0,0,274.27,350.8Z" transform="translate(-40.18 -28.02)"></path><path d="M288.39,348.55v8.29a.79.79,0,0,1-.79.77.76.76,0,0,1-.77-.77v-5.92l-2,2.81a.77.77,0,0,1-.63.33h0a.79.79,0,0,1-.64-.33l-2-2.81v5.92a.78.78,0,0,1-1.56,0v-8.29a.79.79,0,0,1,.77-.78h0a.76.76,0,0,1,.62.33l2.8,3.88L287,348.1a.79.79,0,0,1,.64-.33h0A.82.82,0,0,1,288.39,348.55Z" transform="translate(-40.18 -28.02)"></path><path d="M293.3,348.55a.77.77,0,0,1,.77-.78.79.79,0,0,1,.79.78v8.29a.79.79,0,0,1-.79.77.76.76,0,0,1-.77-.77Z" transform="translate(-40.18 -28.02)"></path><path d="M300.44,356.84a.77.77,0,1,1-1.53,0v-8.17h0a.76.76,0,0,1,1.38-.48l4.54,6.28v-5.79a.76.76,0,0,1,.76-.75.77.77,0,0,1,.77.75v8.17a.78.78,0,0,1-.77.77.76.76,0,0,1-.58-.28l-.07-.08-4.5-6.24Z" transform="translate(-40.18 -28.02)"></path><path d="M316.16,355.29h-3.41l-.69,1.83a.79.79,0,0,1-.73.49.77.77,0,0,1-.27,0,.79.79,0,0,1-.47-1l3.11-8.28a.78.78,0,0,1,.75-.49.76.76,0,0,1,.74.49l3.11,8.28a.79.79,0,0,1-.47,1,.71.71,0,0,1-.26,0,.75.75,0,0,1-.72-.49Zm-.58-1.54-1.13-3-1.14,3Z" transform="translate(-40.18 -28.02)"></path><path d="M321.63,356.84v-8.29a.78.78,0,0,1,1.56,0v7.5H327a.78.78,0,0,1,0,1.56h-4.59A.77.77,0,0,1,321.63,356.84Z" transform="translate(-40.18 -28.02)"></path></g><path d="M178.32,354.55h-3.41l-.69,1.83a.79.79,0,0,1-.73.49.76.76,0,0,1-.73-1.06l3.1-8.27a.81.81,0,0,1,.75-.5.78.78,0,0,1,.74.5l3.11,8.27a.81.81,0,0,1-.46,1,.73.73,0,0,1-.27,0,.75.75,0,0,1-.72-.49Zm-.57-1.55-1.14-3-1.14,3Z" transform="translate(-40.18 -28.02)" style="fill:#EF6603"></path><path d="M183.89,347.8a.77.77,0,0,1,.78-.77.78.78,0,0,1,.78.77v8.3a.78.78,0,0,1-.78.77.77.77,0,0,1-.78-.77Z" transform="translate(-40.18 -28.02)" style="fill:#EF6603"></path><path d="M196,355.7a.79.79,0,0,1-.49,1,1.56,1.56,0,0,1-.31,0h0a1,1,0,0,1-.55-.16,1.42,1.42,0,0,1-.45-.49,3.87,3.87,0,0,1-.29-1.68,1.26,1.26,0,0,0-.17-.61,1.37,1.37,0,0,0-.42-.41,2.59,2.59,0,0,0-.79-.33h-1.66v3.05a.78.78,0,0,1-1.56,0v-8.3a.77.77,0,0,1,.78-.77h2.51a3,3,0,0,1,1.91,5.33,2,2,0,0,1,.49.52,2.59,2.59,0,0,1,.47,1.52,3,3,0,0,0,.06.82A.8.8,0,0,1,196,355.7Zm-2-5.65a1.45,1.45,0,0,0-1.45-1.46h-1.73v2.9h1.73A1.45,1.45,0,0,0,194,350.05Z" transform="translate(-40.18 -28.02)" style="fill:#EF6603"></path><path d="M203,353.05h-1.73v3.05a.78.78,0,0,1-1.56,0v-8.3a.78.78,0,0,1,.78-.77H203a3,3,0,1,1,0,6Zm-1.73-1.56H203a1.45,1.45,0,1,0,0-2.9h-1.73Z" transform="translate(-40.18 -28.02)" style="fill:#EF6603"></path><path d="M217.05,348.25a5.17,5.17,0,0,1,0,7.12,4.62,4.62,0,0,1-3.36,1.5,4.77,4.77,0,0,1-3.45-1.5,5.25,5.25,0,0,1,0-7.12,4.73,4.73,0,0,1,3.45-1.5A4.58,4.58,0,0,1,217.05,348.25Zm-.19,3.56a3.66,3.66,0,0,0-1-2.46,3,3,0,0,0-2.22-1,3.08,3.08,0,0,0-2.28,1,3.57,3.57,0,0,0-.95,2.46,3.53,3.53,0,0,0,.95,2.45,3,3,0,0,0,4.5,0A3.62,3.62,0,0,0,216.86,351.81Z" transform="translate(-40.18 -28.02)" style="fill:#EF6603"></path><path d="M229.15,355.7a.78.78,0,0,1-.49,1,1.46,1.46,0,0,1-.31,0h0a1,1,0,0,1-.55-.16,1.33,1.33,0,0,1-.45-.49,3.73,3.73,0,0,1-.29-1.68,1.26,1.26,0,0,0-.17-.61,1.54,1.54,0,0,0-.43-.41,2.56,2.56,0,0,0-.78-.33H224v3.05a.78.78,0,0,1-.79.77.77.77,0,0,1-.77-.77v-8.3a.76.76,0,0,1,.77-.77h2.52a3,3,0,0,1,1.91,5.33,2.22,2.22,0,0,1,.49.52,2.66,2.66,0,0,1,.47,1.52,3.16,3.16,0,0,0,0,.82A.76.76,0,0,1,229.15,355.7Zm-2-5.65a1.45,1.45,0,0,0-1.45-1.46H224v2.9h1.73A1.45,1.45,0,0,0,227.19,350.05Z" transform="translate(-40.18 -28.02)" style="fill:#EF6603"></path><path d="M238.58,348.59h-2.24v7.51a.76.76,0,0,1-.77.77.78.78,0,0,1-.78-.77v-7.51h-2.22a.78.78,0,0,1-.77-.79.76.76,0,0,1,.77-.77h6a.77.77,0,0,1,.77.77A.79.79,0,0,1,238.58,348.59Z" transform="translate(-40.18 -28.02)" style="fill:#EF6603"></path><path d="M254.72,348.59h-2.24v7.51a.76.76,0,0,1-.77.77.77.77,0,0,1-.77-.77v-7.51h-2.22a.78.78,0,0,1-.78-.79.77.77,0,0,1,.78-.77h6a.77.77,0,0,1,.77.77A.79.79,0,0,1,254.72,348.59Z" transform="translate(-40.18 -28.02)" style="fill:#EF6603"></path><path d="M259.22,356.1v-8.3A.76.76,0,0,1,260,347h4.6a.78.78,0,0,1,.77.77.79.79,0,0,1-.77.79h-3.81v2.57h3.27a.79.79,0,0,1,.78.78.78.78,0,0,1-.78.78h-3.27v2.59h3.81a.78.78,0,0,1,0,1.56H260A.77.77,0,0,1,259.22,356.1Z" transform="translate(-40.18 -28.02)" style="fill:#EF6603"></path><path d="M275.75,355.7a.78.78,0,0,1-.49,1,1.46,1.46,0,0,1-.31,0h0a1,1,0,0,1-.55-.16,1.33,1.33,0,0,1-.45-.49,3.71,3.71,0,0,1-.3-1.68,1.27,1.27,0,0,0-.16-.61,1.54,1.54,0,0,0-.43-.41,2.56,2.56,0,0,0-.78-.33h-1.66v3.05a.78.78,0,0,1-.79.77.77.77,0,0,1-.77-.77v-8.3a.76.76,0,0,1,.77-.77h2.52a3,3,0,0,1,1.91,5.33,2.22,2.22,0,0,1,.49.52,2.66,2.66,0,0,1,.47,1.52,3.16,3.16,0,0,0,.05.82A.76.76,0,0,1,275.75,355.7Zm-2-5.65a1.44,1.44,0,0,0-1.44-1.46h-1.73v2.9h1.73A1.44,1.44,0,0,0,273.78,350.05Z" transform="translate(-40.18 -28.02)" style="fill:#EF6603"></path><path d="M287.9,347.8v8.3a.79.79,0,0,1-.79.77.77.77,0,0,1-.77-.77v-5.92l-2,2.81a.78.78,0,0,1-.64.32h0A.8.8,0,0,1,283,353l-2-2.81v5.92a.78.78,0,0,1-1.56,0v-8.3a.78.78,0,0,1,.77-.77h.05a.75.75,0,0,1,.61.32l2.8,3.88,2.8-3.88a.76.76,0,0,1,.63-.32h0A.79.79,0,0,1,287.9,347.8Z" transform="translate(-40.18 -28.02)" style="fill:#EF6603"></path><path d="M292.81,347.8a.77.77,0,0,1,.78-.77.78.78,0,0,1,.78.77v8.3a.78.78,0,0,1-.78.77.77.77,0,0,1-.78-.77Z" transform="translate(-40.18 -28.02)" style="fill:#EF6603"></path><path d="M300,356.1a.77.77,0,1,1-1.53,0v-8.17h0a.76.76,0,0,1,1.38-.48l4.54,6.28v-5.79a.77.77,0,0,1,.76-.76.77.77,0,0,1,.77.76v8.17a.78.78,0,0,1-.77.77.76.76,0,0,1-.58-.28l-.07-.09-4.5-6.24Z" transform="translate(-40.18 -28.02)" style="fill:#EF6603"></path><path d="M315.67,354.55h-3.41l-.69,1.83a.79.79,0,0,1-.73.49.76.76,0,0,1-.73-1.06l3.1-8.27a.81.81,0,0,1,.75-.5.78.78,0,0,1,.74.5l3.11,8.27a.81.81,0,0,1-.46,1,.73.73,0,0,1-.27,0,.76.76,0,0,1-.72-.49ZM315.1,353,314,350l-1.14,3Z" transform="translate(-40.18 -28.02)" style="fill:#EF6603"></path><path d="M321.15,356.1v-8.3a.76.76,0,0,1,.77-.77.79.79,0,0,1,.79.77v7.51h3.81a.78.78,0,0,1,0,1.56h-4.6A.76.76,0,0,1,321.15,356.1Z" transform="translate(-40.18 -28.02)" style="fill:#EF6603"></path></g><g id="freepik--Floor--inject-10"><path d="M50.74,440.41c127.66-.61,270.86-.61,398.52,0-127.66.62-270.86.61-398.52,0Z" transform="translate(-40.18 -28.02)" style="fill:#263238"></path></g></svg>
