<svg width="187" height="65" viewBox="0 0 187 65" fill="none" xmlns="http://www.w3.org/2000/svg">
<path fill-rule="evenodd" clip-rule="evenodd" d="M168.93 0.975249C169.223 0.96769 169.461 1.2058 169.461 1.4989V8.42451C169.461 8.7178 169.221 8.9544 168.928 8.96185C164.98 9.06201 164.23 10.2871 163.615 11.4303C162.999 12.5701 162.996 13.7487 162.997 13.8509C162.997 13.8547 162.998 13.8584 162.998 13.8622L163.005 13.99V16.8326C163.005 17.1258 163.243 17.3633 163.536 17.3633H171.339C171.632 17.3633 171.869 17.1255 171.869 16.8326V9.96591C171.869 9.67262 172.107 9.43508 172.4 9.43508H179.326C179.619 9.43508 179.857 9.67281 179.857 9.96591V16.8326C179.857 17.1258 180.094 17.3633 180.387 17.3633H185.272C185.566 17.3633 185.803 17.601 185.803 17.8941V24.3165C185.803 24.6098 185.565 24.8472 185.272 24.8472H180.387C180.094 24.8472 179.857 25.085 179.857 25.378V37.0295L179.849 37.1543C179.849 37.158 179.849 37.1618 179.849 37.1656V37.1694C179.848 37.2756 179.852 38.4462 180.466 39.5834C181.081 40.7264 181.826 41.9573 185.773 42.0576C186.067 42.0651 186.307 42.3017 186.307 42.595V49.5206C186.307 49.8139 186.068 50.0522 185.775 50.0442C179.445 49.8734 175.202 46.6677 173.43 43.3737C171.835 40.4111 171.843 37.4786 171.869 36.792V25.3763C171.869 25.083 171.631 24.8455 171.339 24.8455H163.536C163.243 24.8455 163.005 25.0833 163.005 25.3763V48.9113C163.005 49.2046 162.768 49.442 162.475 49.442H155.549C155.256 49.442 155.018 49.2043 155.018 48.9113V25.3763C155.018 25.083 154.78 24.8455 154.487 24.8455H151.796C151.503 24.8455 151.265 24.6078 151.265 24.3147V17.8924C151.265 17.5991 151.503 17.3616 151.796 17.3616H154.487C154.781 17.3616 155.018 17.1239 155.018 16.8308V14.2242C154.992 13.5374 154.988 10.6048 156.579 7.64252C158.351 4.34832 162.6 1.14045 168.93 0.969727V0.975249ZM80.6094 3.8009C79.3132 3.80109 78.0702 4.31605 77.1538 5.23251C76.2374 6.14897 75.7223 7.3919 75.7223 8.68794C75.722 9.32985 75.8481 9.9655 76.0938 10.5587C76.3395 11.1518 76.6994 11.6907 77.1533 12.1447C77.6071 12.5987 78.1458 12.9588 78.7387 13.2046C79.3318 13.4499 79.9674 13.5769 80.6094 13.5769C81.2511 13.5768 81.8867 13.4503 82.4799 13.2046C83.0727 12.9586 83.6115 12.5987 84.0653 12.1447C84.5191 11.6907 84.8793 11.1517 85.1248 10.5587C85.3701 9.9655 85.4967 9.32985 85.4963 8.68794C85.496 7.3919 84.9811 6.14897 84.0647 5.23251C83.1483 4.31605 81.9053 3.80109 80.6094 3.8009ZM74.4916 17.4044C74.1983 17.4044 73.9609 17.6422 73.9609 17.9352V24.3576C73.9609 24.6509 74.1986 24.8884 74.4916 24.8884H76.646C76.9393 24.8884 77.1769 25.1261 77.1769 25.4192V48.911C77.1769 49.2043 77.4146 49.4417 77.7076 49.4417H84.6332C84.9265 49.4417 85.164 49.204 85.164 48.911V17.9352C85.164 17.642 84.9262 17.4044 84.6332 17.4044H74.4916ZM14.5062 5.33293C14.5758 5.1122 14.781 4.96291 15.0121 4.96291H25.3993C25.6306 4.96291 25.8352 5.11296 25.9052 5.33293L39.6869 48.7602C39.7957 49.1022 39.5402 49.4515 39.181 49.4515H31.9123C31.681 49.4515 31.4763 49.3015 31.4065 49.0815L29.0445 41.64C28.975 41.4201 28.7697 41.27 28.5387 41.27H11.8727C11.6414 41.27 11.4367 41.4201 11.3668 41.64L9.00491 49.0815C8.93537 49.3015 8.73015 49.4515 8.499 49.4515H1.23036C0.871302 49.4515 0.615843 49.1019 0.724467 48.7602L14.5062 5.33293ZM20.7125 15.3778C20.5561 14.8842 19.8573 14.8841 19.7007 15.3778L14.0784 33.0945C13.9696 33.4366 14.2254 33.7859 14.5843 33.7859H25.8272C26.1862 33.7859 26.4416 33.4363 26.3331 33.0945L20.7125 15.3778ZM63.2152 15.8265C63.363 15.5733 63.6879 15.4875 63.9411 15.6353L69.9262 19.1262C70.1794 19.274 70.2648 19.5991 70.117 19.8523L69.1558 21.499C69.1081 21.5803 69.0832 21.6725 69.0832 21.7662C69.0832 25.8068 69.0837 29.8466 69.0842 33.886V33.8863V33.8866C69.085 39.2498 69.0862 44.6131 69.0852 49.9779C69.0842 51.6225 68.8225 55.2762 67.5242 57.338C65.7217 60.6883 61.3215 63.913 54.8112 63.9804L54.8075 63.9809C54.6155 63.9998 50.649 64.3509 46.4312 62.2881C45.6518 61.9067 44.871 61.4215 44.1141 60.8332C43.8692 60.6423 43.8541 60.2809 44.074 60.0612L49.0556 55.0793C49.2234 54.9122 49.4809 54.8767 49.6915 54.9863C49.7731 55.0309 49.8563 55.0706 49.9383 55.111C53.977 57.0049 58.8221 56.1589 60.4888 53.558C61.1881 52.2095 61.1489 50.2226 61.112 48.3651L61.11 48.2449C61.1079 48.1308 61.1062 48.017 61.1062 47.904C61.0986 47.5063 60.676 47.2466 60.3148 47.4136C58.2992 48.3461 56.1127 48.9774 53.7666 49.0547C49.6326 49.1904 45.9485 47.3838 43.6702 44.6943C41.3918 42.0049 40.3156 38.6775 39.9626 35.3468C39.6096 32.0162 39.9815 28.6298 41.0537 25.555C42.1271 22.4801 43.9172 19.5778 46.9395 17.8568C49.5143 16.3906 52.1653 15.9961 54.606 16.1996C56.8127 16.3836 58.8494 17.4667 60.5046 18.3473L60.5053 18.3477C60.6807 18.441 60.8519 18.5317 61.0186 18.6194C61.262 18.7472 61.5637 18.6659 61.702 18.4282L63.2152 15.8265ZM53.7008 23.6381C53.7008 23.6381 53.7005 23.6383 53.7005 23.6385C53.7005 23.6386 53.7005 23.6388 53.7002 23.6388C53.5011 23.6388 53.298 23.6426 53.0912 23.6577C51.0198 23.9922 49.3757 25.508 48.5913 28.185C47.9516 30.017 47.6759 32.3721 47.9015 34.4991C48.1267 36.6265 48.8563 38.4641 49.7589 39.5299C50.6618 40.5957 51.5426 41.1315 53.5041 41.067C55.9906 40.9858 58.4955 40.6381 60.8589 39.1382C61.0085 39.0437 61.0962 38.8774 61.0962 38.7004V26.8456C61.0962 26.6612 61.001 26.4907 60.8445 26.3938L60.7289 26.322C58.4207 24.8923 56.4017 23.6416 53.701 23.6379L53.7008 23.6381ZM134.45 16.1552C125.634 16.1552 118.981 24.1687 118.981 33.3257C118.981 42.4827 125.634 50.4961 134.45 50.4964C143.267 50.4961 149.92 42.4827 149.92 33.3257C149.92 24.1687 143.267 16.1553 134.45 16.1552V16.1552ZM134.45 24.1423C138.31 24.1424 141.932 27.929 141.932 33.3257C141.932 38.7223 138.31 42.5089 134.45 42.5089C130.591 42.5089 126.968 38.7223 126.968 33.3257C126.968 27.929 130.591 24.1424 134.45 24.1423ZM103.352 16.0972C103.352 16.0972 103.352 16.0971 103.352 16.0971C103.352 16.097 103.352 16.097 103.352 16.097C107.006 16.1272 109.914 17.2816 111.85 18.6742C113.57 19.9116 114.654 21.441 115.124 22.1961C115.28 22.4478 115.176 22.7698 114.909 22.9001L108.751 25.9093C108.466 26.048 108.078 25.9282 107.851 25.7067C107.698 25.5575 107.484 25.3745 107.185 25.1591C104.85 23.5133 100.024 23.5644 98.7412 25.6379C97.911 27.3459 100.91 27.9808 102.611 28.1354C103.93 28.2408 105.434 28.381 107.498 28.7192C110.695 29.2428 113.413 30.7738 115.053 33.0501C116.691 35.3261 117.131 38.1403 116.637 40.6519C115.649 45.6754 111.06 49.9429 104.881 50.2728C99.5957 50.5547 95.6555 49.1096 93.1433 47.4124C91.3278 46.1858 90.1415 44.6797 89.6231 43.9387C89.4519 43.6938 89.5407 43.3639 89.8027 43.2203L95.7657 39.956C96.0579 39.7958 96.4958 39.9103 96.7421 40.1352C96.9322 40.3083 97.2081 40.5289 97.6075 40.7989C98.7672 41.5826 100.743 42.4987 104.451 42.301C106.368 42.1986 107.577 41.3435 108.231 40.4048C108.795 39.6075 109.084 38.7559 108.575 37.7166C107.809 36.4736 105.994 36.4834 104.194 36.4932C103.753 36.4952 103.313 36.497 102.89 36.4819C101.04 36.4002 98.7944 36.1141 96.9765 35.3378C92.88 33.7731 91.0402 31.0663 90.6093 27.7811C90.2517 25.0541 90.9883 22.0719 92.9112 19.9511C94.834 17.8302 97.5867 16.6847 100.706 16.2651C101.625 16.1412 102.508 16.0886 103.352 16.0962L103.352 16.0972Z" fill="white"/>
</svg>
