<svg xmlns="http://www.w3.org/2000/svg" width="140" height="18.36" viewBox="0 0 140 18.36"><path d="M140 2.38h-4.14l-4.97 5.54V2.38h-3.48l.02 13.64h3.46v-5.19l4.7 5.19H140l-6.35-6.74zm-18.2 5.6-3.17-.35c-1.86-.2-2.32-.67-2.32-1.3 0-.7.95-1.33 2.81-1.33 1.8 0 2.73.67 2.9 1.67h3.41c-.17-2.88-2.6-4.67-6.12-4.67-4.2 0-6.31 1.67-6.31 4.62 0 2.4 1.4 3.53 4.3 3.84l3.22.34c1.23.14 1.8.61 1.8 1.23 0 .7-.83 1.33-2.8 1.33-2.3 0-3.21-.58-3.37-1.74h-3.34c.15 3.14 2.2 4.74 6.58 4.74 4.01 0 6.25-1.76 6.25-4.4 0-2.3-1.33-3.68-3.84-3.97zm-21.51 8.04h10.98v-2.95h-7.5V10.6h6.04V7.63h-6.04v-2.3h7.5V2.38H100.3ZM92.1 2.38h-6.38v13.64h6.38c4.9 0 6.24-1.83 6.24-6.93 0-4.79-1.3-6.71-6.24-6.71zm-.14 10.69H89.2V5.33h2.77c2.18 0 2.83.6 2.83 3.76 0 2.9-.73 3.98-2.83 3.98zM76.27 2c-4.96 0-7.54 3.05-7.54 7.16 0 4.13 2.58 7.2 7.54 7.2 4.98 0 7.56-3.07 7.56-7.2 0-4.1-2.58-7.16-7.56-7.16zm0 11.29c-2.57 0-4-1.57-4-4.13 0-2.5 1.43-4.09 4-4.09 2.6 0 4 1.59 4 4.1 0 2.55-1.4 4.12-4 4.12zM55.9 5.33h4.4v10.69h3.48V5.32h4.39V2.39H55.9Zm-5.06 5.47c0 1.77-1.1 2.49-2.95 2.49-1.81 0-2.99-.75-2.99-2.49V2.38h-3.48v8.81c0 3.94 3.52 5.17 6.47 5.17 2.93 0 6.43-1.23 6.43-5.17V2.38h-3.48Zm-19.6-8.42L26 16.02h3.6l.91-2.56h5.85l.9 2.56h3.72l-5.3-13.64Zm.31 8.18 1.91-5.35 1.88 5.35zM.11 16.02l12.22-7.6h6.34a.37.37 0 0 1 .37.37.32.32 0 0 1-.18.31l-6 3.6c-.39.23-.52.7-.52 1.05l-.01 2.27h7.63V2.84a.47.47 0 0 0-.5-.47H12.2L0 9.94v6.08z"/></svg>