<?xml version="1.0" encoding="utf-8"?>
<!-- Generator: Adobe Illustrator 23.0.3, SVG Export Plug-In . SVG Version: 6.00 Build 0)  -->
<svg version="1.1" id="Layer_1" xmlns="http://www.w3.org/2000/svg" xmlns:xlink="http://www.w3.org/1999/xlink" x="0px" y="0px"
	 viewBox="0 0 404 144" style="enable-background:new 0 0 404 144;" xml:space="preserve">
<style type="text/css">
	.st0{fill:url(#SVGID_1_);}
	.st1{fill:url(#SVGID_2_);}
	.st2{fill:url(#SVGID_3_);}
	.st3{fill:url(#SVGID_4_);}
	.st4{fill:url(#SVGID_5_);}
	.st5{fill:url(#SVGID_6_);}
	.st6{fill:url(#SVGID_7_);}
	.st7{fill:url(#SVGID_8_);}
	.st8{fill:url(#SVGID_9_);}
	.st9{fill:url(#SVGID_10_);}
	.st10{fill:url(#SVGID_11_);}
	.st11{fill:url(#SVGID_12_);}
	.st12{fill:url(#SVGID_13_);}
	.st13{fill:url(#SVGID_14_);}
	.st14{fill:#58595B;}
</style>
<g>
	
		<radialGradient id="SVGID_1_" cx="-1.2979" cy="7.8374" r="239.9246" gradientTransform="matrix(0.5 0 0 0.5 101.2904 35.6195)" gradientUnits="userSpaceOnUse">
		<stop  offset="0" style="stop-color:#009697"/>
		<stop  offset="1" style="stop-color:#00AB4E"/>
	</radialGradient>
	<path class="st0" d="M22.8,124.6l55-83.4c0.2-1,0.4-2,0.7-3v-0.1l-59.8,82.3C20,121.8,21.4,123.2,22.8,124.6z"/>
	
		<radialGradient id="SVGID_2_" cx="-1.298" cy="7.8373" r="239.9254" gradientTransform="matrix(0.5 0 0 0.5 101.2904 35.6195)" gradientUnits="userSpaceOnUse">
		<stop  offset="0" style="stop-color:#009697"/>
		<stop  offset="1" style="stop-color:#00AB4E"/>
	</radialGradient>
	<path class="st1" d="M8,105c0.9,1.7,1.9,3.4,2.9,5l68.5-74.5c0.6-1.3,1.3-2.6,2.1-3.7L8,105z"/>
	
		<radialGradient id="SVGID_3_" cx="-1.2978" cy="7.8373" r="239.9249" gradientTransform="matrix(0.5 0 0 0.5 101.2904 35.6195)" gradientUnits="userSpaceOnUse">
		<stop  offset="0" style="stop-color:#009697"/>
		<stop  offset="1" style="stop-color:#00AB4E"/>
	</radialGradient>
	<path class="st2" d="M137.4,41.7c-0.7-1.6-1.5-3.1-2.4-4.7l-14,13.8c-0.3,0.9-0.6,1.8-1,2.6L137.4,41.7z"/>
	
		<radialGradient id="SVGID_4_" cx="-1.2943" cy="7.8375" r="239.9037" gradientTransform="matrix(0.5 0 0 0.5 101.2904 35.6195)" gradientUnits="userSpaceOnUse">
		<stop  offset="0" style="stop-color:#009697"/>
		<stop  offset="1" style="stop-color:#00AB4E"/>
	</radialGradient>
	<path class="st3" d="M112.7,62.4l31.1,13.9c0.1-1.9,0.1-4.4,0.1-4.7l-30.3-9.9C113.4,61.9,113.1,62.2,112.7,62.4z"/>
	
		<radialGradient id="SVGID_5_" cx="-1.2976" cy="7.8372" r="239.9243" gradientTransform="matrix(0.5 0 0 0.5 101.2904 35.6195)" gradientUnits="userSpaceOnUse">
		<stop  offset="0" style="stop-color:#009697"/>
		<stop  offset="1" style="stop-color:#00AB4E"/>
	</radialGradient>
	<path class="st4" d="M141.6,53.6L118,57c-0.3,0.4-0.6,0.9-1,1.3l25.6-0.1C142.4,56.6,142,55.1,141.6,53.6z"/>
	
		<radialGradient id="SVGID_6_" cx="-1.3012" cy="7.8378" r="239.9276" gradientTransform="matrix(0.5 0 0 0.5 101.2904 35.6195)" gradientUnits="userSpaceOnUse">
		<stop  offset="0" style="stop-color:#009697"/>
		<stop  offset="1" style="stop-color:#00AB4E"/>
	</radialGradient>
	<path class="st5" d="M127.7,26.4c-1.2-1.5-2.5-2.9-3.8-4.3l-1.7,15.4L114,13.6c-1.9-1.3-3.8-2.6-5.8-3.8l7,15.8L97,4.5
		c-2.4-0.9-4.9-1.7-7.4-2.3l18.3,19.2l-30-21.1c-2-0.2-5-0.3-7.6-0.2l31.5,20L59,1.2c-2.3,0.4-4.6,0.9-6.8,1.6l45.1,17.5L40.7,7.2
		c-2.1,1-4.1,2.1-6.1,3.3l59,10.5l-68.9-3.2c-1.8,1.6-3.5,3.2-5.1,4.9l71.1-0.5L12.1,32c-1.3,1.9-2.4,3.8-3.5,5.8l79.3-14L3.4,50
		c-0.6,1.9-1.1,3.8-1.6,5.7L85.2,26L0.1,68.2C0,69.9,0,72.3,0,74.2l82.8-45.5L1.5,86.9c0.4,1.9,0.9,3.7,1.4,5.5l79.6-61.9
		c4.1-5,10.3-8.2,17.2-8.2c12.3,0,22.2,9.9,22.2,22.2c0,1.3-0.1,2.5-0.3,3.7L127.7,26.4z"/>
	
		<radialGradient id="SVGID_7_" cx="-1.2977" cy="7.8372" r="239.9248" gradientTransform="matrix(0.5 0 0 0.5 101.2904 35.6195)" gradientUnits="userSpaceOnUse">
		<stop  offset="0" style="stop-color:#009697"/>
		<stop  offset="1" style="stop-color:#00AB4E"/>
	</radialGradient>
	<path class="st6" d="M77.7,47.1c-0.1-0.8-0.2-1.7-0.2-2.5l-44.5,88c1.5,1,3.1,1.9,4.7,2.8L77.7,47.1z"/>
	
		<radialGradient id="SVGID_8_" cx="-1.2978" cy="7.8368" r="239.9254" gradientTransform="matrix(0.5 0 0 0.5 101.2904 35.6195)" gradientUnits="userSpaceOnUse">
		<stop  offset="0" style="stop-color:#009697"/>
		<stop  offset="1" style="stop-color:#00AB4E"/>
	</radialGradient>
	<path class="st7" d="M102.9,66.4c-0.4,0.1-0.8,0.1-1.1,0.1l30.6,44.8c1-1.5,1.9-3.1,2.8-4.6L102.9,66.4z"/>
	
		<radialGradient id="SVGID_9_" cx="-1.2978" cy="7.8375" r="239.9249" gradientTransform="matrix(0.5 0 0 0.5 101.2904 35.6195)" gradientUnits="userSpaceOnUse">
		<stop  offset="0" style="stop-color:#009697"/>
		<stop  offset="1" style="stop-color:#00AB4E"/>
	</radialGradient>
	<path class="st8" d="M108.6,64.8c-0.3,0.1-0.7,0.3-1,0.4l32.9,29.3c0.5-1.6,1-3.2,1.4-4.8L108.6,64.8z"/>
	
		<radialGradient id="SVGID_10_" cx="-1.2978" cy="7.8372" r="239.9245" gradientTransform="matrix(0.5 0 0 0.5 101.2904 35.6195)" gradientUnits="userSpaceOnUse">
		<stop  offset="0" style="stop-color:#009697"/>
		<stop  offset="1" style="stop-color:#00AB4E"/>
	</radialGradient>
	<path class="st9" d="M124.7,121.1L97.2,66.5c-0.5-0.1-0.9-0.1-1.4-0.2l25.1,58.6C122.2,123.6,123.4,122.4,124.7,121.1z"/>
	
		<radialGradient id="SVGID_11_" cx="-1.298" cy="7.8367" r="239.9293" gradientTransform="matrix(0.5 0 0 0.5 101.2904 35.6195)" gradientUnits="userSpaceOnUse">
		<stop  offset="0" style="stop-color:#009697"/>
		<stop  offset="1" style="stop-color:#00AB4E"/>
	</radialGradient>
	<path class="st10" d="M74.3,144l7.9-86.1c-0.4-0.5-0.7-1-1-1.5l-12.4,87.5C70.5,144,73.2,144,74.3,144z"/>
	
		<radialGradient id="SVGID_12_" cx="-1.2978" cy="7.8373" r="239.9257" gradientTransform="matrix(0.5 0 0 0.5 101.2904 35.6195)" gradientUnits="userSpaceOnUse">
		<stop  offset="0" style="stop-color:#009697"/>
		<stop  offset="1" style="stop-color:#00AB4E"/>
	</radialGradient>
	<path class="st11" d="M91.4,65c-0.4-0.2-0.8-0.4-1.3-0.5l15,71.4c1.7-0.9,3.3-1.8,4.9-2.8L91.4,65z"/>
	
		<radialGradient id="SVGID_13_" cx="-1.2975" cy="7.8374" r="239.9252" gradientTransform="matrix(0.5 0 0 0.5 101.2904 35.6195)" gradientUnits="userSpaceOnUse">
		<stop  offset="0" style="stop-color:#009697"/>
		<stop  offset="1" style="stop-color:#00AB4E"/>
	</radialGradient>
	<path class="st12" d="M79.2,52.8c-0.3-0.6-0.5-1.3-0.7-2l-28.4,89.8c1.8,0.6,3.6,1.1,5.4,1.5L79.2,52.8z"/>
	
		<radialGradient id="SVGID_14_" cx="-1.2979" cy="7.8372" r="239.9249" gradientTransform="matrix(0.5 0 0 0.5 101.2904 35.6195)" gradientUnits="userSpaceOnUse">
		<stop  offset="0" style="stop-color:#009697"/>
		<stop  offset="1" style="stop-color:#00AB4E"/>
	</radialGradient>
	<path class="st13" d="M86.3,62.1c-0.4-0.3-0.8-0.7-1.2-1l2.4,81.2c1.9-0.4,3.7-0.9,5.6-1.5L86.3,62.1z"/>
</g>
<g>
	<g>
		<path class="st14" d="M171,44.5h32.7v4.9h-27.5V68h20.5v4.7h-20.5v21.8h29v4.8H171V44.5z"/>
		<path class="st14" d="M210.6,44.5h5.4l16.4,47.8h0.1L249,44.5h5.1l-19.2,55h-5L210.6,44.5z"/>
		<path class="st14" d="M261.5,45.8h5.4v5.5h-5.4V45.8z M261.6,60.3h5.1v39h-5.1V60.3z"/>
		<path class="st14" d="M276.7,79.7c0-13.8,8.9-20.2,17.1-20.2c9.1,0,15.9,7,15.9,20.3v1h-27.9c0.1,9.6,5.6,15,12.3,15
			c5.8,0,9.2-2.5,12.1-7.1l3.2,2.5c-3.4,5.5-8.2,8.9-15.6,8.9C284.7,100.1,276.7,93,276.7,79.7z M304.7,76.7
			c-0.5-7.4-4.1-12.9-11-12.9c-5.6,0-10.9,4.1-11.8,12.9H304.7z"/>
		<path class="st14" d="M314.7,60.3h5.3l5.5,19.3c1.4,5,2.3,8.2,3.6,13.2h0.1c1.4-5.5,2.1-8.3,3.6-13.2l5.3-19.3h4.7l5.4,19.7
			c1.4,4.7,2.1,7.8,3.4,12.9h0.1c1.4-5.3,2.1-8,3.6-12.7l5.7-19.8h5l-12,39h-4.7l-8.8-32h-0.1l-9,32h-4.7L314.7,60.3z"/>
		<path class="st14" d="M370.5,93l3.3-3c3,3.4,6.7,5.6,12.1,5.6c6.7,0,10.1-2.4,10.1-6.8c0-4.3-3.1-6-10.7-7.8
			c-9-2.2-13.5-4.6-13.5-11.4c0-5.6,4.8-10.2,13.2-10.2c6.7,0,11,2.2,14.4,5.6l-2.9,3.4c-3-3-6.7-4.8-11.4-4.8
			c-6.1,0-8.4,2.8-8.4,5.8c0,3.8,2.7,5.3,9.5,7c9.8,2.4,14.8,4.7,14.8,12.4c0,7.1-6.4,11.2-15.2,11.2C378.8,100,373.4,97,370.5,93z"
			/>
	</g>
</g>
</svg>
